solid exported
  facet normal -0.9847435720192411 0.12378982909160756 -0.12229544382460202
    outer loop
      vertex 26.738178253173828 80.5913314819336 77.88985443115234
      vertex 35.61639404296875 57.71617889404297 -16.75370979309082
      vertex 24.867050170898438 69.40126037597656 81.62968444824219
    endloop
  endfacet
  facet normal -0.6742125089528687 -0.7190202406326983 -0.16866352994045417
    outer loop
      vertex 16.518917083740234 38.17613220214844 95.8662338256836
      vertex 7.080646514892578 46.25371551513672 99.15950012207031
      vertex 15.269607543945312 43.560203552246094 77.90766143798828
    endloop
  endfacet
  facet normal -0.00899694136752512 -0.9911776425522448 -0.1322343977586908
    outer loop
      vertex 27.857452392578125 12.26190185546875 75.66327667236328
      vertex 19.519271850585938 10.216367721557617 91.56311798095703
      vertex 27.328704833984375 22.79752540588379 -3.2716915607452393
    endloop
  endfacet
  facet normal -0.9693507624330729 0.22141330109011714 -0.10646712859280749
    outer loop
      vertex 28.823867797851562 87.76591491699219 73.82083892822266
      vertex 35.92414855957031 75.14051055908203 -17.08135223388672
      vertex 26.738178253173828 80.5913314819336 77.88985443115234
    endloop
  endfacet
  facet normal -0.7467836764000672 -0.6472536944354811 -0.15289472097499304
    outer loop
      vertex 39.64137268066406 15.515413284301758 60.30633544921875
      vertex 43.11919403076172 22.457334518432617 13.932175636291504
      vertex 47.854087829589844 5.158485412597656 64.0372543334961
    endloop
  endfacet
  facet normal -0.34461057750137264 0.9301629218703386 -0.12665105073312616
    outer loop
      vertex 2.5673980712890625 62.63987731933594 94.76502990722656
      vertex 10.453632354736328 66.2718734741211 99.98147583007812
      vertex 18.530231475830078 57.43731689453125 13.121889114379883
    endloop
  endfacet
  facet normal 0.17286346371154773 -0.9738676872715847 -0.14730903095853018
    outer loop
      vertex 91.52754974365234 30.677473068237305 74.06581115722656
      vertex 83.14329528808594 26.743478775024414 90.23493957519531
      vertex 76.89812469482422 36.50780487060547 18.353919982910156
    endloop
  endfacet
  facet normal 0.2317107905713376 0.959060724342654 -0.16282701420878992
    outer loop
      vertex 34.35890197753906 93.37236785888672 64.74431610107422
      vertex 42.99153137207031 90.52508544921875 60.25830841064453
      vertex 39.594512939453125 77.77471160888672 -19.67626953125
    endloop
  endfacet
  facet normal 0.0571244308296097 0.9871144062020778 -0.1494722331094055
    outer loop
      vertex 80.01639556884766 81.50503540039062 95.02684020996094
      vertex 66.06285095214844 70.2899169921875 15.629534721374512
      vertex 70.14818572998047 82.72257995605469 99.29612731933594
    endloop
  endfacet
  facet normal 0.8877223121932256 0.421887754818525 -0.18428190027373167
    outer loop
      vertex 77.55422973632812 56.560272216796875 97.7912368774414
      vertex 79.31107330322266 52.038002014160156 95.90119171142578
      vertex 62.13777160644531 50.503753662109375 9.661558151245117
    endloop
  endfacet
  facet normal -0.40398914182048906 -0.9018921381116173 -0.15291613552401895
    outer loop
      vertex 13.526805877685547 11.681041717529297 98.75603485107422
      vertex 27.328704833984375 22.79752540588379 -3.2716915607452393
      vertex 19.519271850585938 10.216367721557617 91.56311798095703
    endloop
  endfacet
  facet normal 0.4716260546880281 -0.8657332867448669 -0.16755518721106555
    outer loop
      vertex 54.961875915527344 0 75.76460266113281
      vertex 54.18238830566406 15.3502197265625 -5.741814613342285
      vertex 61.953147888183594 1.1815509796142578 89.33838653564453
    endloop
  endfacet
  facet normal -0.7362728776041056 0.6507837826373368 -0.18542577480169609
    outer loop
      vertex 2.5673980712890625 62.63987731933594 94.76502990722656
      vertex 18.530231475830078 57.43731689453125 13.121889114379883
      vertex 16.0718994140625 55.58961486816406 16.398395538330078
    endloop
  endfacet
  facet normal 0.8989548296294019 -0.4206782379284597 -0.12210665182281877
    outer loop
      vertex 61.953147888183594 1.1815509796142578 89.33838653564453
      vertex 57.61700439453125 17.54326820373535 1.0465912818908691
      vertex 66.14483642578125 8.283828735351562 95.72923278808594
    endloop
  endfacet
  facet normal -0.6028818564971195 0.7818801502712969 -0.1587353070942974
    outer loop
      vertex 24.867050170898438 69.40126037597656 81.62968444824219
      vertex 35.61639404296875 57.71617889404297 -16.75370979309082
      vertex 19.57003402709961 67.31617736816406 91.47746276855469
    endloop
  endfacet
  facet normal -0.1394572690244515 0.9804404870032778 -0.13888168187711938
    outer loop
      vertex 70.14818572998047 82.72257995605469 99.29612731933594
      vertex 66.06285095214844 70.2899169921875 15.629534721374512
      vertex 60.92046356201172 68.40467071533203 7.48426628112793
    endloop
  endfacet
  facet normal 0.8932201095137456 -0.4243493594875364 -0.1486117662325888
    outer loop
      vertex 77.55422973632812 56.560272216796875 97.7912368774414
      vertex 70.23815155029297 55.711097717285156 56.24324035644531
      vertex 80.80557250976562 64.75716400146484 93.92760467529297
    endloop
  endfacet
  facet normal 0.8677728194320435 0.442662180398646 -0.22587724077400698
    outer loop
      vertex 91.67951202392578 41.47454071044922 73.77619934082031
      vertex 93.57881927490234 35.978240966796875 70.30158233642578
      vertex 77.8253402709961 39.93833923339844 17.540822982788086
    endloop
  endfacet
  facet normal 0.396238618235197 -0.9052089893114824 -0.15359571311969122
    outer loop
      vertex 68.8366928100586 23.604726791381836 98.44940948486328
      vertex 57.99554443359375 35.259605407714844 1.7944836616516113
      vertex 74.13370513916016 25.689809799194336 99.82604217529297
    endloop
  endfacet
  facet normal -0.9446674076453767 0.3032166687807667 -0.12515246983602912
    outer loop
      vertex 16.518917083740234 38.17613220214844 95.8662338256836
      vertex 23.466094970703125 37.29462432861328 41.292320251464844
      vertex 12.89816665649414 28.248823165893555 99.14447021484375
    endloop
  endfacet
  facet normal -0.8098344330917491 0.5691379991967666 -0.1423029474370323
    outer loop
      vertex 34.35890197753906 93.37236785888672 64.74431610107422
      vertex 35.92414855957031 75.14051055908203 -17.08135223388672
      vertex 28.823867797851562 87.76591491699219 73.82083892822266
    endloop
  endfacet
  facet normal -0.5572810109048814 -0.813952377033609 -0.1640713345047548
    outer loop
      vertex 13.526805877685547 11.681041717529297 98.75603485107422
      vertex 24.01852035522461 23.736242294311523 3.3146634101867676
      vertex 27.328704833984375 22.79752540588379 -3.2716915607452393
    endloop
  endfacet
  facet normal -0.8258732455405309 -0.5524782470252445 -0.1126994625730881
    outer loop
      vertex 47.854087829589844 5.158485412597656 64.0372543334961
      vertex 43.11919403076172 22.457334518432617 13.932175636291504
      vertex 49.88946533203125 17.868864059448242 -13.187350273132324
    endloop
  endfacet
  facet normal -0.20958347961628604 0.9667195835991077 -0.14672427119566012
    outer loop
      vertex 58.24439239501953 77.56094360351562 82.29132843017578
      vertex 70.14818572998047 82.72257995605469 99.29612731933594
      vertex 51.055450439453125 61.78912353515625 -11.355377197265625
    endloop
  endfacet
  facet normal 0.12875521011859953 -0.976321147815093 -0.17383645243830395
    outer loop
      vertex 35.4593505859375 15.445043563842773 63.416221618652344
      vertex 27.857452392578125 12.26190185546875 75.66327667236328
      vertex 42.64923095703125 31.216367721557617 -19.835264205932617
    endloop
  endfacet
  facet normal -0.9951960298608638 -0.05703938296294979 -0.07956991228084004
    outer loop
      vertex 26.738178253173828 80.5913314819336 77.88985443115234
      vertex 34.892127990722656 69.17233276367188 -15.907476425170898
      vertex 35.61639404296875 57.71617889404297 -16.75370979309082
    endloop
  endfacet
  facet normal 0.950030662451012 -0.28253909290609713 -0.13271549036450542
    outer loop
      vertex 83.2528305053711 74.80955505371094 90.04544067382812
      vertex 80.80557250976562 64.75716400146484 93.92760467529297
      vertex 70.48139953613281 65.01741790771484 19.468976974487305
    endloop
  endfacet
  facet normal -0.9680816639709574 0.22680892304533792 -0.10665647805096637
    outer loop
      vertex 10.450916290283203 18.19643211364746 99.98048400878906
      vertex 12.89816665649414 28.248823165893555 99.14447021484375
      vertex 23.22327423095703 27.98807716369629 4.872769355773926
    endloop
  endfacet
  facet normal -0.44884305343461606 0.8838622402865178 -0.13163378585753835
    outer loop
      vertex 18.530231475830078 57.43731689453125 13.121889114379883
      vertex 10.453632354736328 66.2718734741211 99.98147583007812
      vertex 23.370506286621094 58.62408447265625 4.586202144622803
    endloop
  endfacet
  facet normal -0.41684773924784146 0.9035675007749715 -0.09901380624557007
    outer loop
      vertex 70.14818572998047 82.72257995605469 99.29612731933594
      vertex 60.92046356201172 68.40467071533203 7.48426628112793
      vertex 51.055450439453125 61.78912353515625 -11.355377197265625
    endloop
  endfacet
  facet normal -0.6561957964024018 -0.7464184499702575 -0.11075456797719928
    outer loop
      vertex 7.080646514892578 46.25371551513672 99.15950012207031
      vertex 2.3952713012695312 51.05976104736328 94.52946472167969
      vertex 20.147796630859375 47.91852569580078 10.51978874206543
    endloop
  endfacet
  facet normal -0.7977545413429395 -0.5848625413785397 -0.14670889359187483
    outer loop
      vertex 2.3952713012695312 51.05976104736328 94.52946472167969
      vertex 16.427337646484375 51.621986389160156 15.986380577087402
      vertex 20.147796630859375 47.91852569580078 10.51978874206543
    endloop
  endfacet
  facet normal -0.16789839134044865 0.979447749407147 -0.11176867345801461
    outer loop
      vertex 19.57003402709961 67.31617736816406 91.47746276855469
      vertex 35.61639404296875 57.71617889404297 -16.75370979309082
      vertex 25.284866333007812 62.8314208984375 43.59199142456055
    endloop
  endfacet
  facet normal 0.8000070436173371 0.590520380708316 -0.10618102528584711
    outer loop
      vertex 42.99153137207031 90.52508544921875 60.25830841064453
      vertex 50.854522705078125 81.31849670410156 68.29901123046875
      vertex 44.07280731201172 74.76051330566406 -19.26882553100586
    endloop
  endfacet
  facet normal 0.8447340887543395 0.5202804306773048 -0.12542963266554752
    outer loop
      vertex 54.06237030029297 77.4905776977539 74.02482604980469
      vertex 51.055450439453125 61.78912353515625 -11.355377197265625
      vertex 50.854522705078125 81.31849670410156 68.29901123046875
    endloop
  endfacet
  facet normal 0.5725988657657205 0.8082365269379146 -0.13741999653306736
    outer loop
      vertex 86.62309265136719 46.75227355957031 83.74822998046875
      vertex 91.67951202392578 41.47454071044922 73.77619934082031
      vertex 74.64775848388672 44.34162902832031 19.671422958374023
    endloop
  endfacet
  facet normal 0.6916208888395168 -0.6989316369663683 -0.18208545512574426
    outer loop
      vertex 74.13370513916016 25.689809799194336 99.82604217529297
      vertex 57.99554443359375 35.259605407714844 1.7944836616516113
      vertex 68.4193115234375 30.17433738708496 60.907108306884766
    endloop
  endfacet
  facet normal 0.9715178736506623 -0.1963616933389384 -0.13264654751014296
    outer loop
      vertex 68.8366928100586 23.604726791381836 98.44940948486328
      vertex 67.65769958496094 18.494565963745117 97.37909698486328
      vertex 57.99554443359375 35.259605407714844 1.7944836616516113
    endloop
  endfacet
  facet normal 0.9864380543331728 -0.12995466831912889 -0.10025841184384508
    outer loop
      vertex 67.65769958496094 18.494565963745117 97.37909698486328
      vertex 66.14483642578125 8.283828735351562 95.72923278808594
      vertex 58.81255340576172 23.833162307739258 3.4322218894958496
    endloop
  endfacet
  facet normal -0.7679883695517764 -0.6224636916314875 -0.15077405888847278
    outer loop
      vertex 39.64137268066406 15.515413284301758 60.30633544921875
      vertex 42.64923095703125 31.216367721557617 -19.835264205932617
      vertex 43.11919403076172 22.457334518432617 13.932175636291504
    endloop
  endfacet
  facet normal -0.769877024706173 -0.6240643925069629 -0.13354025922726986
    outer loop
      vertex 16.518917083740234 38.17613220214844 95.8662338256836
      vertex 15.269607543945312 43.560203552246094 77.90766143798828
      vertex 31.56690216064453 42.501739501953125 -11.101922988891602
    endloop
  endfacet
  facet normal -0.22004366235780504 0.9684527058850279 -0.11696214396176208
    outer loop
      vertex 19.57003402709961 67.31617736816406 91.47746276855469
      vertex 25.284866333007812 62.8314208984375 43.59199142456055
      vertex 10.453632354736328 66.2718734741211 99.98147583007812
    endloop
  endfacet
  facet normal 0.44687625614603865 0.8869271248372956 -0.1168840747097234
    outer loop
      vertex 79.31107330322266 52.038002014160156 95.90119171142578
      vertex 86.62309265136719 46.75227355957031 83.74822998046875
      vertex 74.64775848388672 44.34162902832031 19.671422958374023
    endloop
  endfacet
  facet normal -0.004910232430089042 -0.9934964636121003 -0.11375704992541366
    outer loop
      vertex 74.13370513916016 25.689809799194336 99.82604217529297
      vertex 68.4193115234375 30.17433738708496 60.907108306884766
      vertex 83.14329528808594 26.743478775024414 90.23493957519531
    endloop
  endfacet
  facet normal 0.8189657772067297 -0.5073386335034481 -0.2681465396365041
    outer loop
      vertex 93.57881927490234 35.978240966796875 70.30158233642578
      vertex 91.52754974365234 30.677473068237305 74.06581115722656
      vertex 76.89812469482422 36.50780487060547 18.353919982910156
    endloop
  endfacet
  facet normal 0.34336934061219215 0.921485498878964 -0.1815543204755401
    outer loop
      vertex 54.06237030029297 77.4905776977539 74.02482604980469
      vertex 58.24439239501953 77.56094360351562 82.29132843017578
      vertex 51.055450439453125 61.78912353515625 -11.355377197265625
    endloop
  endfacet
  facet normal -0.12888141038827264 -0.97223580354286 -0.1953128883758036
    outer loop
      vertex 39.64137268066406 15.515413284301758 60.30633544921875
      vertex 35.4593505859375 15.445043563842773 63.416221618652344
      vertex 42.64923095703125 31.216367721557617 -19.835264205932617
    endloop
  endfacet
  facet normal -0.1477308896617046 0.9840707364437404 -0.09889575276439365
    outer loop
      vertex 10.453632354736328 66.2718734741211 99.98147583007812
      vertex 25.284866333007812 62.8314208984375 43.59199142456055
      vertex 23.370506286621094 58.62408447265625 4.586202144622803
    endloop
  endfacet
  facet normal 0.5127425117110748 0.8505003921163051 -0.1172356587998283
    outer loop
      vertex 79.31107330322266 52.038002014160156 95.90119171142578
      vertex 74.64775848388672 44.34162902832031 19.671422958374023
      vertex 62.13777160644531 50.503753662109375 9.661558151245117
    endloop
  endfacet
  facet normal 0.7456066449600338 0.6353362663351899 -0.2010436760276307
    outer loop
      vertex 91.67951202392578 41.47454071044922 73.77619934082031
      vertex 77.8253402709961 39.93833923339844 17.540822982788086
      vertex 74.64775848388672 44.34162902832031 19.671422958374023
    endloop
  endfacet
  facet normal -0.02834851643839325 -0.9943709291234674 -0.10209219818318477
    outer loop
      vertex 83.14329528808594 26.743478775024414 90.23493957519531
      vertex 68.4193115234375 30.17433738708496 60.907108306884766
      vertex 70.33417510986328 34.38140869140625 19.39881706237793
    endloop
  endfacet
  facet normal 0.8158448211894752 0.5427741324113039 -0.19948300409676414
    outer loop
      vertex 80.01639556884766 81.50503540039062 95.02684020996094
      vertex 83.2528305053711 74.80955505371094 90.04544067382812
      vertex 69.97669219970703 68.73126220703125 19.210290908813477
    endloop
  endfacet
  facet normal -0.9046583367029267 -0.3989266241538617 -0.14983605165345826
    outer loop
      vertex 13.526805877685547 11.681041717529297 98.75603485107422
      vertex 10.450916290283203 18.19643211364746 99.98048400878906
      vertex 24.01852035522461 23.736242294311523 3.3146634101867676
    endloop
  endfacet
  facet normal -0.017521171149604362 -0.9910730861165157 -0.13216333280086356
    outer loop
      vertex 27.328704833984375 22.79752540588379 -3.2716915607452393
      vertex 31.875411987304688 23.828466415405273 -11.605330467224121
      vertex 27.857452392578125 12.26190185546875 75.66327667236328
    endloop
  endfacet
  facet normal -0.8465660696931852 0.4969900183780166 -0.1905959371992281
    outer loop
      vertex 0 56.767234802246094 90.85533142089844
      vertex 2.5673980712890625 62.63987731933594 94.76502990722656
      vertex 16.0718994140625 55.58961486816406 16.398395538330078
    endloop
  endfacet
  facet normal 0.5160681433498423 -0.8518955423885446 -0.08914962859134001
    outer loop
      vertex 27.857452392578125 12.26190185546875 75.66327667236328
      vertex 31.875411987304688 23.828466415405273 -11.605330467224121
      vertex 42.64923095703125 31.216367721557617 -19.835264205932617
    endloop
  endfacet
  facet normal 0.9031528790487411 -0.31360164145672337 -0.29320451487250093
    outer loop
      vertex 93.57881927490234 35.978240966796875 70.30158233642578
      vertex 76.89812469482422 36.50780487060547 18.353919982910156
      vertex 77.8253402709961 39.93833923339844 17.540822982788086
    endloop
  endfacet
  facet normal 0.9384180109475421 -0.31960763853266555 -0.13123488149433393
    outer loop
      vertex 70.48139953613281 65.01741790771484 19.468976974487305
      vertex 80.80557250976562 64.75716400146484 93.92760467529297
      vertex 68.62187194824219 60.04381561279297 18.28474235534668
    endloop
  endfacet
  facet normal 0.8261572715719212 -0.5547628400761887 -0.09850052740691272
    outer loop
      vertex 80.80557250976562 64.75716400146484 93.92760467529297
      vertex 70.23815155029297 55.711097717285156 56.24324035644531
      vertex 68.62187194824219 60.04381561279297 18.28474235534668
    endloop
  endfacet
  facet normal -0.9544434038620296 0.2791918541679036 -0.1053076321571728
    outer loop
      vertex 23.22327423095703 27.98807716369629 4.872769355773926
      vertex 12.89816665649414 28.248823165893555 99.14447021484375
      vertex 25.082809448242188 32.96167755126953 1.2051101922988892
    endloop
  endfacet
  facet normal -0.8772521146666973 0.47218722792300105 -0.08641729629651365
    outer loop
      vertex 12.89816665649414 28.248823165893555 99.14447021484375
      vertex 23.466094970703125 37.29462432861328 41.292320251464844
      vertex 25.082809448242188 32.96167755126953 1.2051101922988892
    endloop
  endfacet
  facet normal -0.9832886594043418 0.14963501899693823 -0.10369558031371465
    outer loop
      vertex 26.738178253173828 80.5913314819336 77.88985443115234
      vertex 35.92414855957031 75.14051055908203 -17.08135223388672
      vertex 34.892127990722656 69.17233276367188 -15.907476425170898
    endloop
  endfacet
  facet normal 0.9942156346627967 0.05814517074891447 -0.09030177689631556
    outer loop
      vertex 67.65769958496094 18.494565963745117 97.37909698486328
      vertex 58.81255340576172 23.833162307739258 3.4322218894958496
      vertex 57.99554443359375 35.259605407714844 1.7944836616516113
    endloop
  endfacet
  facet normal 0.9836222760011482 -0.1478753720619099 -0.10305383298001361
    outer loop
      vertex 66.14483642578125 8.283828735351562 95.72923278808594
      vertex 57.61700439453125 17.54326820373535 1.0465912818908691
      vertex 58.81255340576172 23.833162307739258 3.4322218894958496
    endloop
  endfacet
  facet normal -0.5195613066622529 -0.8494063876088582 -0.09254640624401579
    outer loop
      vertex 7.080646514892578 46.25371551513672 99.15950012207031
      vertex 20.147796630859375 47.91852569580078 10.51978874206543
      vertex 15.269607543945312 43.560203552246094 77.90766143798828
    endloop
  endfacet
  facet normal -0.8697817344579747 -0.4672077010340487 -0.1587346795686315
    outer loop
      vertex 0 56.767234802246094 90.85533142089844
      vertex 16.427337646484375 51.621986389160156 15.986380577087402
      vertex 2.3952713012695312 51.05976104736328 94.52946472167969
    endloop
  endfacet
  facet normal -0.9755927221570262 -0.06563766976623299 -0.209548411547075
    outer loop
      vertex 0 56.767234802246094 90.85533142089844
      vertex 16.0718994140625 55.58961486816406 16.398395538330078
      vertex 16.427337646484375 51.621986389160156 15.986380577087402
    endloop
  endfacet
  facet normal -0.6532415877452916 0.7362784889620289 -0.17654861860632592
    outer loop
      vertex 34.35890197753906 93.37236785888672 64.74431610107422
      vertex 39.594512939453125 77.77471160888672 -19.67626953125
      vertex 35.92414855957031 75.14051055908203 -17.08135223388672
    endloop
  endfacet
  facet normal 0.8529813836971957 0.5114020676015077 -0.10435844153167614
    outer loop
      vertex 44.07280731201172 74.76051330566406 -19.26882553100586
      vertex 50.854522705078125 81.31849670410156 68.29901123046875
      vertex 46.75636291503906 70.71089935302734 -17.179468154907227
    endloop
  endfacet
  facet normal -0.7898230644638287 -0.6059881519305415 -0.09464611223274917
    outer loop
      vertex 49.88946533203125 17.868864059448242 -13.187350273132324
      vertex 43.11919403076172 22.457334518432617 13.932175636291504
      vertex 46.94831085205078 22.294591903686523 -16.979867935180664
    endloop
  endfacet
  facet normal 0.561325847932039 0.8132213351640154 -0.15357197816474777
    outer loop
      vertex 42.99153137207031 90.52508544921875 60.25830841064453
      vertex 44.07280731201172 74.76051330566406 -19.26882553100586
      vertex 39.594512939453125 77.77471160888672 -19.67626953125
    endloop
  endfacet
  facet normal -0.3939946908106261 -0.9051903528132248 -0.15936940982167408
    outer loop
      vertex 54.961875915527344 0 75.76460266113281
      vertex 47.854087829589844 5.158485412597656 64.0372543334961
      vertex 49.88946533203125 17.868864059448242 -13.187350273132324
    endloop
  endfacet
  facet normal 0.5204607322644192 0.8280557512299727 -0.20843296050709012
    outer loop
      vertex 80.01639556884766 81.50503540039062 95.02684020996094
      vertex 69.97669219970703 68.73126220703125 19.210290908813477
      vertex 66.06285095214844 70.2899169921875 15.629534721374512
    endloop
  endfacet
  facet normal 0.7344113502308127 -0.6599689644755936 -0.15836961381896222
    outer loop
      vertex 61.953147888183594 1.1815509796142578 89.33838653564453
      vertex 54.18238830566406 15.3502197265625 -5.741814613342285
      vertex 57.61700439453125 17.54326820373535 1.0465912818908691
    endloop
  endfacet
  facet normal 0.9844909173999375 0.023613867954218312 -0.17383906004483046
    outer loop
      vertex 77.55422973632812 56.560272216796875 97.7912368774414
      vertex 62.13777160644531 50.503753662109375 9.661558151245117
      vertex 70.23815155029297 55.711097717285156 56.24324035644531
    endloop
  endfacet
  facet normal -0.9653471216483436 0.22821933277499137 -0.12657357888989398
    outer loop
      vertex 16.518917083740234 38.17613220214844 95.8662338256836
      vertex 31.56690216064453 42.501739501953125 -11.101922988891602
      vertex 23.466094970703125 37.29462432861328 41.292320251464844
    endloop
  endfacet
  facet normal 0.9740109903622655 0.11894053054565767 -0.19275824456307014
    outer loop
      vertex 83.2528305053711 74.80955505371094 90.04544067382812
      vertex 70.48139953613281 65.01741790771484 19.468976974487305
      vertex 69.97669219970703 68.73126220703125 19.210290908813477
    endloop
  endfacet
  facet normal -0.9808006853837208 -0.13026279172753966 -0.1451262231375539
    outer loop
      vertex 10.450916290283203 18.19643211364746 99.98048400878906
      vertex 23.22327423095703 27.98807716369629 4.872769355773926
      vertex 24.01852035522461 23.736242294311523 3.3146634101867676
    endloop
  endfacet
  facet normal -0.25163036515467924 -0.9515380237090221 -0.1767980451477089
    outer loop
      vertex 54.961875915527344 0 75.76460266113281
      vertex 49.88946533203125 17.868864059448242 -13.187350273132324
      vertex 54.18238830566406 15.3502197265625 -5.741814613342285
    endloop
  endfacet
  facet normal -0.10374704213236635 0.9893978438282247 -0.10162902083974311
    outer loop
      vertex 25.284866333007812 62.8314208984375 43.59199142456055
      vertex 35.61639404296875 57.71617889404297 -16.75370979309082
      vertex 23.370506286621094 58.62408447265625 4.586202144622803
    endloop
  endfacet
  facet normal 0.06840990610012904 -0.9928837601795216 -0.0974778103936793
    outer loop
      vertex 68.4193115234375 30.17433738708496 60.907108306884766
      vertex 57.99554443359375 35.259605407714844 1.7944836616516113
      vertex 70.33417510986328 34.38140869140625 19.39881706237793
    endloop
  endfacet
  facet normal 0.8607659892480689 -0.500291523791016 -0.09375661564207888
    outer loop
      vertex 68.62187194824219 60.04381561279297 18.28474235534668
      vertex 70.23815155029297 55.711097717285156 56.24324035644531
      vertex 62.13777160644531 50.503753662109375 9.661558151245117
    endloop
  endfacet
  facet normal -0.8725745748857516 0.48064512404983895 -0.08714284818655355
    outer loop
      vertex 25.082809448242188 32.96167755126953 1.2051101922988892
      vertex 23.466094970703125 37.29462432861328 41.292320251464844
      vertex 31.56690216064453 42.501739501953125 -11.101922988891602
    endloop
  endfacet
  facet normal 0.28239482938653426 -0.9469903807246364 -0.15317434233825916
    outer loop
      vertex 83.14329528808594 26.743478775024414 90.23493957519531
      vertex 70.33417510986328 34.38140869140625 19.39881706237793
      vertex 76.89812469482422 36.50780487060547 18.353919982910156
    endloop
  endfacet
  facet normal 0.9191511884168315 0.38310414614115945 -0.09160953029777809
    outer loop
      vertex 50.854522705078125 81.31849670410156 68.29901123046875
      vertex 51.055450439453125 61.78912353515625 -11.355377197265625
      vertex 46.75636291503906 70.71089935302734 -17.179468154907227
    endloop
  endfacet
  facet normal -0.8819118830056357 -0.4591509151611626 -0.10682634375527668
    outer loop
      vertex 43.11919403076172 22.457334518432617 13.932175636291504
      vertex 42.64923095703125 31.216367721557617 -19.835264205932617
      vertex 46.94831085205078 22.294591903686523 -16.979867935180664
    endloop
  endfacet
  facet normal -0.566311945924652 -0.8188184958033634 -0.09395238599073279
    outer loop
      vertex 15.269607543945312 43.560203552246094 77.90766143798828
      vertex 20.147796630859375 47.91852569580078 10.51978874206543
      vertex 31.56690216064453 42.501739501953125 -11.101922988891602
    endloop
  endfacet
  facet normal 0.3946727545674107 0.8073517744415327 0.4386530851462015
    outer loop
      vertex 46.85186767578125 46.50299835205078 62.917015075683594
      vertex 2.3952713012695312 51.05976104736328 94.52946472167969
      vertex 7.080646514892578 46.25371551513672 99.15950012207031
    endloop
  endfacet
  facet normal 0.5008317227531726 0.6072380537177533 0.6167896980342362
    outer loop
      vertex 46.85186767578125 46.50299835205078 62.917015075683594
      vertex 0 56.767234802246094 90.85533142089844
      vertex 2.3952713012695312 51.05976104736328 94.52946472167969
    endloop
  endfacet
  facet normal 0.29951361489405726 -0.6159966725339545 0.728587464838773
    outer loop
      vertex 46.85186767578125 46.50299835205078 62.917015075683594
      vertex 2.5673980712890625 62.63987731933594 94.76502990722656
      vertex 0 56.767234802246094 90.85533142089844
    endloop
  endfacet
  facet normal 0.055984065680680095 -0.8570883984034007 0.5121184059494005
    outer loop
      vertex 46.85186767578125 46.50299835205078 62.917015075683594
      vertex 10.453632354736328 66.2718734741211 99.98147583007812
      vertex 2.5673980712890625 62.63987731933594 94.76502990722656
    endloop
  endfacet
  facet normal 0.6848363245994751 -0.09391833794759569 0.7226192318961928
    outer loop
      vertex 46.85186767578125 46.50299835205078 62.917015075683594
      vertex 19.57003402709961 67.31617736816406 91.47746276855469
      vertex 10.453632354736328 66.2718734741211 99.98147583007812
    endloop
  endfacet
  facet normal 0.7915219888790826 0.3512438933211598 0.5001206539681152
    outer loop
      vertex 46.85186767578125 46.50299835205078 62.917015075683594
      vertex 24.867050170898438 69.40126037597656 81.62968444824219
      vertex 19.57003402709961 67.31617736816406 91.47746276855469
    endloop
  endfacet
  facet normal 0.7099196927320596 0.11358860906476734 0.6950623409176688
    outer loop
      vertex 46.85186767578125 46.50299835205078 62.917015075683594
      vertex 26.738178253173828 80.5913314819336 77.88985443115234
      vertex 24.867050170898438 69.40126037597656 81.62968444824219
    endloop
  endfacet
  facet normal 0.7436624901448922 0.15292699914808272 0.6508298039296145
    outer loop
      vertex 46.85186767578125 46.50299835205078 62.917015075683594
      vertex 28.823867797851562 87.76591491699219 73.82083892822266
      vertex 26.738178253173828 80.5913314819336 77.88985443115234
    endloop
  endfacet
  facet normal 0.7837138672733226 0.1857908046552235 0.5926840230249649
    outer loop
      vertex 46.85186767578125 46.50299835205078 62.917015075683594
      vertex 34.35890197753906 93.37236785888672 64.74431610107422
      vertex 28.823867797851562 87.76591491699219 73.82083892822266
    endloop
  endfacet
  facet normal 0.48351017381032063 0.09495341923197752 0.8701734080044449
    outer loop
      vertex 46.85186767578125 46.50299835205078 62.917015075683594
      vertex 42.99153137207031 90.52508544921875 60.25830841064453
      vertex 34.35890197753906 93.37236785888672 64.74431610107422
    endloop
  endfacet
  facet normal -0.7274712585910978 -0.02237544848072932 0.6857732185126292
    outer loop
      vertex 46.85186767578125 46.50299835205078 62.917015075683594
      vertex 50.854522705078125 81.31849670410156 68.29901123046875
      vertex 42.99153137207031 90.52508544921875 60.25830841064453
    endloop
  endfacet
  facet normal -0.8657818011664195 0.02225512123873114 0.49992657695673665
    outer loop
      vertex 46.85186767578125 46.50299835205078 62.917015075683594
      vertex 54.06237030029297 77.4905776977539 74.02482604980469
      vertex 50.854522705078125 81.31849670410156 68.29901123046875
    endloop
  endfacet
  facet normal -0.8915277561682847 0.04591575556181441 0.45063289202268747
    outer loop
      vertex 46.85186767578125 46.50299835205078 62.917015075683594
      vertex 58.24439239501953 77.56094360351562 82.29132843017578
      vertex 54.06237030029297 77.4905776977539 74.02482604980469
    endloop
  endfacet
  facet normal -0.8071930256678224 -0.06957125532922621 0.5861734041605282
    outer loop
      vertex 46.85186767578125 46.50299835205078 62.917015075683594
      vertex 70.14818572998047 82.72257995605469 99.29612731933594
      vertex 58.24439239501953 77.56094360351562 82.29132843017578
    endloop
  endfacet
  facet normal 0.18110518354710248 -0.7524895749977792 0.6332143018062939
    outer loop
      vertex 46.85186767578125 46.50299835205078 62.917015075683594
      vertex 80.01639556884766 81.50503540039062 95.02684020996094
      vertex 70.14818572998047 82.72257995605469 99.29612731933594
    endloop
  endfacet
  facet normal -0.09407841377143383 -0.6231374120000601 0.7764335244102474
    outer loop
      vertex 46.85186767578125 46.50299835205078 62.917015075683594
      vertex 83.2528305053711 74.80955505371094 90.04544067382812
      vertex 80.01639556884766 81.50503540039062 95.02684020996094
    endloop
  endfacet
  facet normal -0.726264517294019 0.39427619136314696 0.563104018671379
    outer loop
      vertex 46.85186767578125 46.50299835205078 62.917015075683594
      vertex 80.80557250976562 64.75716400146484 93.92760467529297
      vertex 83.2528305053711 74.80955505371094 90.04544067382812
    endloop
  endfacet
  facet normal -0.7133365976507795 0.5096785502581047 0.48101837164375216
    outer loop
      vertex 46.85186767578125 46.50299835205078 62.917015075683594
      vertex 77.55422973632812 56.560272216796875 97.7912368774414
      vertex 80.80557250976562 64.75716400146484 93.92760467529297
    endloop
  endfacet
  facet normal -0.5760946157619062 -0.4954983790126315 0.6500741112257865
    outer loop
      vertex 46.85186767578125 46.50299835205078 62.917015075683594
      vertex 79.31107330322266 52.038002014160156 95.90119171142578
      vertex 77.55422973632812 56.560272216796875 97.7912368774414
    endloop
  endfacet
  facet normal -0.1577954437437426 -0.9367285347843861 0.3124743990384055
    outer loop
      vertex 46.85186767578125 46.50299835205078 62.917015075683594
      vertex 86.62309265136719 46.75227355957031 83.74822998046875
      vertex 79.31107330322266 52.038002014160156 95.90119171142578
    endloop
  endfacet
  facet normal -0.1935995356130644 -0.9043127232871828 0.3804441066849703
    outer loop
      vertex 46.85186767578125 46.50299835205078 62.917015075683594
      vertex 91.67951202392578 41.47454071044922 73.77619934082031
      vertex 86.62309265136719 46.75227355957031 83.74822998046875
    endloop
  endfacet
  facet normal -0.25279736761098404 -0.577902084166183 0.7759656384436997
    outer loop
      vertex 46.85186767578125 46.50299835205078 62.917015075683594
      vertex 93.57881927490234 35.978240966796875 70.30158233642578
      vertex 91.67951202392578 41.47454071044922 73.77619934082031
    endloop
  endfacet
  facet normal 0.0014348073338684522 0.5786221097819744 0.8155945042724182
    outer loop
      vertex 46.85186767578125 46.50299835205078 62.917015075683594
      vertex 91.52754974365234 30.677473068237305 74.06581115722656
      vertex 93.57881927490234 35.978240966796875 70.30158233642578
    endloop
  endfacet
  facet normal 0.23621386386284424 0.908913616086119 0.34362632176863406
    outer loop
      vertex 46.85186767578125 46.50299835205078 62.917015075683594
      vertex 83.14329528808594 26.743478775024414 90.23493957519531
      vertex 91.52754974365234 30.677473068237305 74.06581115722656
    endloop
  endfacet
  facet normal 0.2463549943096683 0.9107339872918062 0.33147069428571097
    outer loop
      vertex 46.85186767578125 46.50299835205078 62.917015075683594
      vertex 74.13370513916016 25.689809799194336 99.82604217529297
      vertex 83.14329528808594 26.743478775024414 90.23493957519531
    endloop
  endfacet
  facet normal -0.417347258212033 0.624182292617244 0.6604678127251771
    outer loop
      vertex 46.85186767578125 46.50299835205078 62.917015075683594
      vertex 68.8366928100586 23.604726791381836 98.44940948486328
      vertex 74.13370513916016 25.689809799194336 99.82604217529297
    endloop
  endfacet
  facet normal -0.8261614631817913 0.07360972633323855 0.558604372469879
    outer loop
      vertex 46.85186767578125 46.50299835205078 62.917015075683594
      vertex 67.65769958496094 18.494565963745117 97.37909698486328
      vertex 68.8366928100586 23.604726791381836 98.44940948486328
    endloop
  endfacet
  facet normal -0.8416395347598391 0.037652664603329875 0.5387255055940001
    outer loop
      vertex 46.85186767578125 46.50299835205078 62.917015075683594
      vertex 66.14483642578125 8.283828735351562 95.72923278808594
      vertex 67.65769958496094 18.494565963745117 97.37909698486328
    endloop
  endfacet
  facet normal -0.8485900121745064 0.02531790348305773 0.5284448835979906
    outer loop
      vertex 46.85186767578125 46.50299835205078 62.917015075683594
      vertex 61.953147888183594 1.1815509796142578 89.33838653564453
      vertex 66.14483642578125 8.283828735351562 95.72923278808594
    endloop
  endfacet
  facet normal -0.8876764968949902 -0.027825672789551944 0.4596261184855006
    outer loop
      vertex 46.85186767578125 46.50299835205078 62.917015075683594
      vertex 54.961875915527344 0 75.76460266113281
      vertex 61.953147888183594 1.1815509796142578 89.33838653564453
    endloop
  endfacet
  facet normal -0.8564869806185043 -0.00677734523824843 0.5161241319900861
    outer loop
      vertex 46.85186767578125 46.50299835205078 62.917015075683594
      vertex 47.854087829589844 5.158485412597656 64.0372543334961
      vertex 54.961875915527344 0 75.76460266113281
    endloop
  endfacet
  facet normal -0.39758512530309925 0.015220482892091207 0.9174390470424999
    outer loop
      vertex 46.85186767578125 46.50299835205078 62.917015075683594
      vertex 39.64137268066406 15.515413284301758 60.30633544921875
      vertex 47.854087829589844 5.158485412597656 64.0372543334961
    endloop
  endfacet
  facet normal 0.5865480878877368 -0.20255012737941766 0.7841777773527006
    outer loop
      vertex 46.85186767578125 46.50299835205078 62.917015075683594
      vertex 35.4593505859375 15.445043563842773 63.416221618652344
      vertex 39.64137268066406 15.515413284301758 60.30633544921875
    endloop
  endfacet
  facet normal 0.8431266765986057 -0.3021216769279621 0.44481445518106355
    outer loop
      vertex 46.85186767578125 46.50299835205078 62.917015075683594
      vertex 27.857452392578125 12.26190185546875 75.66327667236328
      vertex 35.4593505859375 15.445043563842773 63.416221618652344
    endloop
  endfacet
  facet normal 0.8546690876200617 -0.3227175449753061 0.4066867797603
    outer loop
      vertex 46.85186767578125 46.50299835205078 62.917015075683594
      vertex 19.519271850585938 10.216367721557617 91.56311798095703
      vertex 27.857452392578125 12.26190185546875 75.66327667236328
    endloop
  endfacet
  facet normal 0.7604937563389595 -0.06260460623376873 0.6463202842614287
    outer loop
      vertex 46.85186767578125 46.50299835205078 62.917015075683594
      vertex 13.526805877685547 11.681041717529297 98.75603485107422
      vertex 19.519271850585938 10.216367721557617 91.56311798095703
    endloop
  endfacet
  facet normal 0.6399409173047282 0.16090361769261266 0.7513891456313517
    outer loop
      vertex 46.85186767578125 46.50299835205078 62.917015075683594
      vertex 10.450916290283203 18.19643211364746 99.98048400878906
      vertex 13.526805877685547 11.681041717529297 98.75603485107422
    endloop
  endfacet
  facet normal 0.7553523209993435 -0.1304814373171954 0.6421973728352864
    outer loop
      vertex 46.85186767578125 46.50299835205078 62.917015075683594
      vertex 12.89816665649414 28.248823165893555 99.14447021484375
      vertex 10.450916290283203 18.19643211364746 99.98048400878906
    endloop
  endfacet
  facet normal 0.7409763684576778 -0.04909114003020373 0.6697343364034778
    outer loop
      vertex 46.85186767578125 46.50299835205078 62.917015075683594
      vertex 16.518917083740234 38.17613220214844 95.8662338256836
      vertex 12.89816665649414 28.248823165893555 99.14447021484375
    endloop
  endfacet
  facet normal 0.6049949068012039 0.435012797450811 0.6668920668283752
    outer loop
      vertex 46.85186767578125 46.50299835205078 62.917015075683594
      vertex 7.080646514892578 46.25371551513672 99.15950012207031
      vertex 16.518917083740234 38.17613220214844 95.8662338256836
    endloop
  endfacet
  facet normal -0.6754365551217922 0.30946284476766445 -0.669341622576626
    outer loop
      vertex 46.85234069824219 46.50274658203125 -17.08249282836914
      vertex 20.147796630859375 47.91852569580078 10.51978874206543
      vertex 16.427337646484375 51.621986389160156 15.986380577087402
    endloop
  endfacet
  facet normal -0.7355618900227682 0.0044534824674357515 -0.6774428923828526
    outer loop
      vertex 46.85234069824219 46.50274658203125 -17.08249282836914
      vertex 16.427337646484375 51.621986389160156 15.986380577087402
      vertex 16.0718994140625 55.58961486816406 16.398395538330078
    endloop
  endfacet
  facet normal -0.7478166114264462 -0.15134231527004463 -0.6464254166440008
    outer loop
      vertex 46.85234069824219 46.50274658203125 -17.08249282836914
      vertex 16.0718994140625 55.58961486816406 16.398395538330078
      vertex 18.530231475830078 57.43731689453125 13.121889114379883
    endloop
  endfacet
  facet normal -0.7078337691065641 -0.5235679761719996 -0.4741813256967758
    outer loop
      vertex 46.85234069824219 46.50274658203125 -17.08249282836914
      vertex 18.530231475830078 57.43731689453125 13.121889114379883
      vertex 23.370506286621094 58.62408447265625 4.586202144622803
    endloop
  endfacet
  facet normal -0.6657930015539534 -0.6567467450130766 -0.354123413510751
    outer loop
      vertex 46.85234069824219 46.50274658203125 -17.08249282836914
      vertex 23.370506286621094 58.62408447265625 4.586202144622803
      vertex 35.61639404296875 57.71617889404297 -16.75370979309082
    endloop
  endfacet
  facet normal 0.04725888272127658 0.07655532497177983 -0.9959447174529326
    outer loop
      vertex 46.85234069824219 46.50274658203125 -17.08249282836914
      vertex 35.61639404296875 57.71617889404297 -16.75370979309082
      vertex 34.892127990722656 69.17233276367188 -15.907476425170898
    endloop
  endfacet
  facet normal -0.3316673633271154 -0.12652727949464934 -0.9348730435986066
    outer loop
      vertex 46.85234069824219 46.50274658203125 -17.08249282836914
      vertex 34.892127990722656 69.17233276367188 -15.907476425170898
      vertex 35.92414855957031 75.14051055908203 -17.08135223388672
    endloop
  endfacet
  facet normal -0.4771727668131248 -0.18205525158722527 -0.8597453320497991
    outer loop
      vertex 46.85234069824219 46.50274658203125 -17.08249282836914
      vertex 35.92414855957031 75.14051055908203 -17.08135223388672
      vertex 39.594512939453125 77.77471160888672 -19.67626953125
    endloop
  endfacet
  facet normal 0.04151714261496537 -0.0730138651760747 -0.9964664080445153
    outer loop
      vertex 46.85234069824219 46.50274658203125 -17.08249282836914
      vertex 39.594512939453125 77.77471160888672 -19.67626953125
      vertex 44.07280731201172 74.76051330566406 -19.26882553100586
    endloop
  endfacet
  facet normal 0.6136476920382049 -0.0007300516503415884 -0.7895796204821729
    outer loop
      vertex 46.85234069824219 46.50274658203125 -17.08249282836914
      vertex 44.07280731201172 74.76051330566406 -19.26882553100586
      vertex 46.75636291503906 70.71089935302734 -17.179468154907227
    endloop
  endfacet
  facet normal 0.8051476037355924 0.000816367291245556 -0.5930739159188168
    outer loop
      vertex 46.85234069824219 46.50274658203125 -17.08249282836914
      vertex 46.75636291503906 70.71089935302734 -17.179468154907227
      vertex 51.055450439453125 61.78912353515625 -11.355377197265625
    endloop
  endfacet
  facet normal 0.8944009094359076 -0.08113209292380434 -0.4398461056983736
    outer loop
      vertex 46.85234069824219 46.50274658203125 -17.08249282836914
      vertex 51.055450439453125 61.78912353515625 -11.355377197265625
      vertex 60.92046356201172 68.40467071533203 7.48426628112793
    endloop
  endfacet
  facet normal 0.8353970781160651 0.074273170234731 -0.5446055619055169
    outer loop
      vertex 46.85234069824219 46.50274658203125 -17.08249282836914
      vertex 60.92046356201172 68.40467071533203 7.48426628112793
      vertex 66.06285095214844 70.2899169921875 15.629534721374512
    endloop
  endfacet
  facet normal 0.7060742938446859 0.30719783746260226 -0.6380349365277961
    outer loop
      vertex 46.85234069824219 46.50274658203125 -17.08249282836914
      vertex 66.06285095214844 70.2899169921875 15.629534721374512
      vertex 69.97669219970703 68.73126220703125 19.210290908813477
    endloop
  endfacet
  facet normal 0.8205892490578206 0.07202572416720267 -0.5669617089265483
    outer loop
      vertex 46.85234069824219 46.50274658203125 -17.08249282836914
      vertex 69.97669219970703 68.73126220703125 19.210290908813477
      vertex 70.48139953613281 65.01741790771484 19.468976974487305
    endloop
  endfacet
  facet normal 0.8662261220077252 -0.21666179230282115 -0.4502332432279816
    outer loop
      vertex 46.85234069824219 46.50274658203125 -17.08249282836914
      vertex 70.48139953613281 65.01741790771484 19.468976974487305
      vertex 68.62187194824219 60.04381561279297 18.28474235534668
    endloop
  endfacet
  facet normal 0.8668599925652036 -0.1634489633767012 -0.47099701661574944
    outer loop
      vertex 46.85234069824219 46.50274658203125 -17.08249282836914
      vertex 68.62187194824219 60.04381561279297 18.28474235534668
      vertex 62.13777160644531 50.503753662109375 9.661558151245117
    endloop
  endfacet
  facet normal 0.6620656930739017 0.5868028475702787 -0.46618819819680807
    outer loop
      vertex 46.85234069824219 46.50274658203125 -17.08249282836914
      vertex 62.13777160644531 50.503753662109375 9.661558151245117
      vertex 74.64775848388672 44.34162902832031 19.671422958374023
    endloop
  endfacet
  facet normal 0.6201730430287712 0.6558197203895108 -0.43044847664808567
    outer loop
      vertex 46.85234069824219 46.50274658203125 -17.08249282836914
      vertex 74.64775848388672 44.34162902832031 19.671422958374023
      vertex 77.8253402709961 39.93833923339844 17.540822982788086
    endloop
  endfacet
  facet normal 0.6687865324499467 -0.33774102073708445 -0.6623107857532206
    outer loop
      vertex 46.85234069824219 46.50274658203125 -17.08249282836914
      vertex 77.8253402709961 39.93833923339844 17.540822982788086
      vertex 76.89812469482422 36.50780487060547 18.353919982910156
    endloop
  endfacet
  facet normal 0.21555149697433185 -0.8767013011605436 -0.4300376503232413
    outer loop
      vertex 46.85234069824219 46.50274658203125 -17.08249282836914
      vertex 76.89812469482422 36.50780487060547 18.353919982910156
      vertex 70.33417510986328 34.38140869140625 19.39881706237793
    endloop
  endfacet
  facet normal 0.8041088393771908 -0.16293814398771353 -0.5717168317176836
    outer loop
      vertex 46.85234069824219 46.50274658203125 -17.08249282836914
      vertex 70.33417510986328 34.38140869140625 19.39881706237793
      vertex 57.99554443359375 35.259605407714844 1.7944836616516113
    endloop
  endfacet
  facet normal 0.8578663471758445 -0.0122928805697966 -0.5137258174069808
    outer loop
      vertex 46.85234069824219 46.50274658203125 -17.08249282836914
      vertex 57.99554443359375 35.259605407714844 1.7944836616516113
      vertex 58.81255340576172 23.833162307739258 3.4322218894958496
    endloop
  endfacet
  facet normal 0.8727819261038002 0.01909508914982187 -0.4877366984725479
    outer loop
      vertex 46.85234069824219 46.50274658203125 -17.08249282836914
      vertex 58.81255340576172 23.833162307739258 3.4322218894958496
      vertex 57.61700439453125 17.54326820373535 1.0465912818908691
    endloop
  endfacet
  facet normal 0.886223925487215 0.040528257051979065 -0.46148089264276165
    outer loop
      vertex 46.85234069824219 46.50274658203125 -17.08249282836914
      vertex 57.61700439453125 17.54326820373535 1.0465912818908691
      vertex 54.18238830566406 15.3502197265625 -5.741814613342285
    endloop
  endfacet
  facet normal 0.8697045521212101 0.02519292592599014 -0.4929293139010226
    outer loop
      vertex 46.85234069824219 46.50274658203125 -17.08249282836914
      vertex 54.18238830566406 15.3502197265625 -5.741814613342285
      vertex 49.88946533203125 17.868864059448242 -13.187350273132324
    endloop
  endfacet
  facet normal 0.7905215633681869 0.000537649729220681 -0.6124339709574302
    outer loop
      vertex 46.85234069824219 46.50274658203125 -17.08249282836914
      vertex 49.88946533203125 17.868864059448242 -13.187350273132324
      vertex 46.94831085205078 22.294591903686523 -16.979867935180664
    endloop
  endfacet
  facet normal 0.5513220959343116 -0.0013511393755673167 -0.8342913885190147
    outer loop
      vertex 46.85234069824219 46.50274658203125 -17.08249282836914
      vertex 46.94831085205078 22.294591903686523 -16.979867935180664
      vertex 42.64923095703125 31.216367721557617 -19.835264205932617
    endloop
  endfacet
  facet normal -0.7019497563656879 0.3085995829666845 -0.6418978399488036
    outer loop
      vertex 46.85234069824219 46.50274658203125 -17.08249282836914
      vertex 42.64923095703125 31.216367721557617 -19.835264205932617
      vertex 31.875411987304688 23.828466415405273 -11.605330467224121
    endloop
  endfacet
  facet normal -0.8095942134116652 0.4412459728099524 -0.3871165213334945
    outer loop
      vertex 46.85234069824219 46.50274658203125 -17.08249282836914
      vertex 31.875411987304688 23.828466415405273 -11.605330467224121
      vertex 27.328704833984375 22.79752540588379 -3.2716915607452393
    endloop
  endfacet
  facet normal -0.7986273910694056 0.3914055597384506 -0.4571607792008242
    outer loop
      vertex 46.85234069824219 46.50274658203125 -17.08249282836914
      vertex 27.328704833984375 22.79752540588379 -3.2716915607452393
      vertex 24.01852035522461 23.736242294311523 3.3146634101867676
    endloop
  endfacet
  facet normal -0.7228763075436367 0.11450712338362859 -0.6814234826350528
    outer loop
      vertex 46.85234069824219 46.50274658203125 -17.08249282836914
      vertex 24.01852035522461 23.736242294311523 3.3146634101867676
      vertex 23.22327423095703 27.98807716369629 4.872769355773926
    endloop
  endfacet
  facet normal -0.39898332692009675 -0.4429057509486908 -0.8028989977676815
    outer loop
      vertex 46.85234069824219 46.50274658203125 -17.08249282836914
      vertex 23.22327423095703 27.98807716369629 4.872769355773926
      vertex 25.082809448242188 32.96167755126953 1.2051101922988892
    endloop
  endfacet
  facet normal -0.040771853489931606 -0.7791767775878612 -0.6254767823275235
    outer loop
      vertex 46.85234069824219 46.50274658203125 -17.08249282836914
      vertex 25.082809448242188 32.96167755126953 1.2051101922988892
      vertex 31.56690216064453 42.501739501953125 -11.101922988891602
    endloop
  endfacet
  facet normal -0.3771445670460052 0.8316706240966834 -0.40753643832461706
    outer loop
      vertex 46.85234069824219 46.50274658203125 -17.08249282836914
      vertex 31.56690216064453 42.501739501953125 -11.101922988891602
      vertex 20.147796630859375 47.91852569580078 10.51978874206543
    endloop
  endfacet
endsolid exported
