solid exported
  facet normal -0.9815540146540843 0.10284766379660662 -0.16116474294345456
    outer loop
      vertex 32.199825286865234 97.05323028564453 96.3410415649414
      vertex 45.58878707885742 73.87638854980469 0.006864591501653194
      vertex 30.626752853393555 85.4759750366211 98.5335922241211
    endloop
  endfacet
  facet normal -0.40489584029587944 -0.8711836299755741 -0.277666060896314
    outer loop
      vertex 21.408954620361328 49.4772834777832 103.68219757080078
      vertex 8.725703239440918 56.999908447265625 98.57465362548828
      vertex 20.175661087036133 57.5558967590332 80.1337661743164
    endloop
  endfacet
  facet normal -0.04971446214367786 -0.9800713889914601 -0.1923240617658518
    outer loop
      vertex 34.43898010253906 15.158865928649902 98.87779998779297
      vertex 26.340675354003906 13.786683082580566 107.96371459960938
      vertex 41.027950286865234 34.22539520263672 0.012754696421325207
    endloop
  endfacet
  facet normal -0.9724198964619354 0.20392728899041768 -0.11319543175401349
    outer loop
      vertex 33.68858337402344 102.5785140991211 93.50575256347656
      vertex 41.0799446105957 85.92459869384766 0.006449871230870485
      vertex 32.199825286865234 97.05323028564453 96.3410415649414
    endloop
  endfacet
  facet normal -0.7038098599201815 -0.5920849463948452 -0.39253929399710774
    outer loop
      vertex 46.55288314819336 18.22054100036621 93.95001220703125
      vertex 61.008522033691406 31.774452209472656 47.58755111694336
      vertex 56.48793029785156 6.0891804695129395 94.43508911132812
    endloop
  endfacet
  facet normal -0.218433321347691 0.973656717641661 -0.06541773701591314
    outer loop
      vertex 3.0861706733703613 75.29698944091797 96.16912841796875
      vertex 12.166149139404297 77.12854766845703 93.11092376708984
      vertex 23.699676513671875 73.46080780029297 0.010393651202321053
    endloop
  endfacet
  facet normal 0.4216937735362182 -0.8954843909721241 -0.14241512169032083
    outer loop
      vertex 110.49394989013672 37.034481048583984 96.58244323730469
      vertex 95.80712127685547 30.816864013671875 92.18989562988281
      vertex 93.81807708740234 44.54064178466797 0.007297273259609938
    endloop
  endfacet
  facet normal -0.03357182376746346 0.9916515154221117 -0.12449981771053173
    outer loop
      vertex 38.15983963012695 103.70164489746094 88.85234069824219
      vertex 49.64436340332031 104.53361511230469 92.38220977783203
      vertex 47.271915435791016 92.85527801513672 0.0030189622193574905
    endloop
  endfacet
  facet normal 0.7208227344642586 0.6919094160376033 -0.04093831308165721
    outer loop
      vertex 92.62741088867188 94.35066986083984 92.6150131225586
      vertex 88.02915954589844 93.66175079345703 0.007542809471487999
      vertex 86.0753173828125 101.50472259521484 98.161376953125
    endloop
  endfacet
  facet normal 0.5484563706875972 0.8272721765269501 -0.12172245231078692
    outer loop
      vertex 91.07058715820312 66.4177474975586 93.94804382324219
      vertex 96.49878692626953 63.3152961730957 97.32095336914062
      vertex 76.55266571044922 62.219757080078125 0.0021334493067115545
    endloop
  endfacet
  facet normal -0.28608032791715327 -0.9336150796739018 -0.21568710898963853
    outer loop
      vertex 18.451568603515625 15.933809280395508 109.13359832763672
      vertex 41.027950286865234 34.22539520263672 0.012754696421325207
      vertex 26.340675354003906 13.786683082580566 107.96371459960938
    endloop
  endfacet
  facet normal 0.2026399413292459 -0.9610097594598407 -0.18814169235185205
    outer loop
      vertex 67.3665771484375 0 98.0589828491211
      vertex 68.89556121826172 19.518556594848633 0.006875855848193169
      vertex 81.81011199951172 1.5602567195892334 105.6458969116211
    endloop
  endfacet
  facet normal -0.5718963862126824 0.8086284568522781 -0.13803819111237933
    outer loop
      vertex 3.0861706733703613 75.29698944091797 96.16912841796875
      vertex 23.699676513671875 73.46080780029297 0.010393651202321053
      vertex 20.60589599609375 71.27184295654297 0.005051581654697657
    endloop
  endfacet
  facet normal 0.9960994338707091 0.036284164374840555 -0.08043243909065952
    outer loop
      vertex 81.81011199951172 1.5602567195892334 105.6458969116211
      vertex 72.53258514404297 22.084775924682617 0.009113730862736702
      vertex 80.86515808105469 10.127367973327637 97.80804443359375
    endloop
  endfacet
  facet normal -0.5860077227996547 0.7896130199903015 -0.18195116784719617
    outer loop
      vertex 30.626752853393555 85.4759750366211 98.5335922241211
      vertex 45.58878707885742 73.87638854980469 0.006864591501653194
      vertex 22.807540893554688 78.45242309570312 93.23673248291016
    endloop
  endfacet
  facet normal -0.502826872555946 0.8607887082172024 -0.07879045653736387
    outer loop
      vertex 86.0753173828125 101.50472259521484 98.161376953125
      vertex 88.02915954589844 93.66175079345703 0.007542809471487999
      vertex 78.4134750366211 88.04673767089844 0.028925960883498192
    endloop
  endfacet
  facet normal 0.7297546952919225 0.6809000456267398 0.06191294343590146
    outer loop
      vertex 91.07058715820312 66.4177474975586 93.94804382324219
      vertex 90.2210922241211 71.5610580444336 47.39626693725586
      vertex 87.90174102783203 70.4439926147461 87.01911926269531
    endloop
  endfacet
  facet normal 0.7830031833101688 0.6042081499841232 -0.14777863992778228
    outer loop
      vertex 109.83596801757812 49.688270568847656 95.84806823730469
      vertex 114.58303833007812 44.05373001098633 97.96295928955078
      vertex 93.18816375732422 47.82221984863281 0.01036404725164175
    endloop
  endfacet
  facet normal 0.3678230950098834 -0.9053390047760255 -0.21229097297931895
    outer loop
      vertex 80.04108428955078 27.446813583374023 93.0256576538086
      vertex 83.0037841796875 50.463890075683594 0
      vertex 86.60516357421875 30.01158905029297 93.46104431152344
    endloop
  endfacet
  facet normal -0.9030780774703875 0.38626140281074645 -0.18775546514299687
    outer loop
      vertex 21.408954620361328 49.4772834777832 103.68219757080078
      vertex 33.690879821777344 53.544857025146484 52.97586441040039
      vertex 16.118446350097656 35.301692962646484 99.96597290039062
    endloop
  endfacet
  facet normal -0.42164713419876243 0.8863701878303601 -0.1912108374217913
    outer loop
      vertex 38.15983963012695 103.70164489746094 88.85234069824219
      vertex 41.0799446105957 85.92459869384766 0.006449871230870485
      vertex 33.68858337402344 102.5785140991211 93.50575256347656
    endloop
  endfacet
  facet normal -0.6038677205201941 -0.7562968271187417 -0.25171190953919687
    outer loop
      vertex 18.451568603515625 15.933809280395508 109.13359832763672
      vertex 37.491512298583984 37.05089569091797 0.007286640349775553
      vertex 41.027950286865234 34.22539520263672 0.012754696421325207
    endloop
  endfacet
  facet normal -0.9879327416289834 -0.07414501905343607 -0.1359831392747131
    outer loop
      vertex 56.48793029785156 6.0891804695129395 94.43508911132812
      vertex 61.008522033691406 31.774452209472656 47.58755111694336
      vertex 68.11028289794922 24.394996643066406 0.016124289482831955
    endloop
  endfacet
  facet normal -0.48444014520296874 0.865340466491626 -0.12846642661715757
    outer loop
      vertex 68.22380065917969 90.84999084472656 93.70901489257812
      vertex 86.0753173828125 101.50472259521484 98.161376953125
      vertex 59.57133483886719 72.09535217285156 0.007134982850402594
    endloop
  endfacet
  facet normal 0.2816630663327395 -0.9336968864039472 -0.2210792649336728
    outer loop
      vertex 42.18132781982422 18.37293815612793 95.16765594482422
      vertex 34.43898010253906 15.158865928649902 98.87779998779297
      vertex 65.49341583251953 47.936771392822266 0.00946047343313694
    endloop
  endfacet
  facet normal -0.9711773135305402 -0.22415528590856126 -0.08104957422993737
    outer loop
      vertex 32.199825286865234 97.05323028564453 96.3410415649414
      vertex 42.97486114501953 85.19605255126953 0.02195574901998043
      vertex 45.58878707885742 73.87638854980469 0.006864591501653194
    endloop
  endfacet
  facet normal 0.9399930942306772 -0.34119040164267794 0.0014465910082399652
    outer loop
      vertex 92.4992446899414 83.11822509765625 88.88908386230469
      vertex 87.90174102783203 70.4439926147461 87.01911926269531
      vertex 93.9109115600586 86.63058471679688 0.008647589944303036
    endloop
  endfacet
  facet normal -0.9753865353031101 0.13902310675566187 -0.17115397318612946
    outer loop
      vertex 13.664312362670898 23.7913818359375 104.60232543945312
      vertex 16.118446350097656 35.301692962646484 99.96597290039062
      vertex 34.56370162963867 41.6552619934082 0.009419211186468601
    endloop
  endfacet
  facet normal -0.4146441014680208 0.9058102569120953 -0.08705198211770737
    outer loop
      vertex 23.699676513671875 73.46080780029297 0.010393651202321053
      vertex 12.166149139404297 77.12854766845703 93.11092376708984
      vertex 30.531841278076172 76.58804321289062 0.007698589004576206
    endloop
  endfacet
  facet normal -0.6451474795669646 0.762136849583198 -0.054149350095738555
    outer loop
      vertex 86.0753173828125 101.50472259521484 98.161376953125
      vertex 78.4134750366211 88.04673767089844 0.028925960883498192
      vertex 59.57133483886719 72.09535217285156 0.007134982850402594
    endloop
  endfacet
  facet normal -0.026700926473952787 -0.9943677607733904 -0.10256615845368412
    outer loop
      vertex 8.725703239440918 56.999908447265625 98.57465362548828
      vertex 2.7190380096435547 57.96146011352539 90.81622314453125
      vertex 28.0228271484375 66.64810943603516 0.012800263240933418
    endloop
  endfacet
  facet normal -0.34164196350535764 -0.9217652108806609 -0.1833839272737251
    outer loop
      vertex 2.7190380096435547 57.96146011352539 90.81622314453125
      vertex 21.927898406982422 68.90718841552734 0.012488842941820621
      vertex 28.0228271484375 66.64810943603516 0.012800263240933418
    endloop
  endfacet
  facet normal 0.8706829985446195 0.4534546948387607 0.1904992277518113
    outer loop
      vertex 22.807540893554688 78.45242309570312 93.23673248291016
      vertex 45.58878707885742 73.87638854980469 0.006864591501653194
      vertex 31.549957275390625 78.3998031616211 53.40448760986328
    endloop
  endfacet
  facet normal 0.07840870965477781 0.9858083598774392 -0.14843837726823234
    outer loop
      vertex 49.64436340332031 104.53361511230469 92.38220977783203
      vertex 65.5955581665039 104.89002990722656 103.17503356933594
      vertex 53.256412506103516 90.338623046875 0.01845758594572544
    endloop
  endfacet
  facet normal 0.9972617591237894 0.029770202830402586 -0.06769578135129244
    outer loop
      vertex 65.49995422363281 93.88469696044922 96.92688751220703
      vertex 59.57133483886719 72.09535217285156 0.007134982850402594
      vertex 65.5955581665039 104.89002990722656 103.17503356933594
    endloop
  endfacet
  facet normal 0.8960643924079666 0.391575124228307 -0.20913518772346212
    outer loop
      vertex 107.00364685058594 57.752079010009766 98.81095886230469
      vertex 109.83596801757812 49.688270568847656 95.84806823730469
      vertex 86.68122100830078 51.48964309692383 0.01163280475884676
    endloop
  endfacet
  facet normal 0.3253552596442654 -0.9210371916778043 -0.21408980958484738
    outer loop
      vertex 86.60516357421875 30.01158905029297 93.46104431152344
      vertex 83.0037841796875 50.463890075683594 0
      vertex 90.67267608642578 39.98853302001953 56.72062301635742
    endloop
  endfacet
  facet normal 0.9285770726688463 -0.36609113500299745 -0.061007384683930445
    outer loop
      vertex 80.04108428955078 27.446813583374023 93.0256576538086
      vertex 77.47418975830078 21.17795181274414 91.57362365722656
      vertex 83.0037841796875 50.463890075683594 0
    endloop
  endfacet
  facet normal 0.9568405226567607 0.2905631684251165 -0.0054091918707332345
    outer loop
      vertex 77.47418975830078 21.17795181274414 91.57362365722656
      vertex 80.86515808105469 10.127367973327637 97.80804443359375
      vertex 74.25054931640625 30.08924674987793 0.02285948395729065
    endloop
  endfacet
  facet normal -0.2006408454487317 -0.9216894055154413 -0.33201188367016377
    outer loop
      vertex 46.55288314819336 18.22054100036621 93.95001220703125
      vertex 65.49341583251953 47.936771392822266 0.00946047343313694
      vertex 61.008522033691406 31.774452209472656 47.58755111694336
    endloop
  endfacet
  facet normal -0.5225518367039678 -0.8144978317890786 -0.2520572553373529
    outer loop
      vertex 21.408954620361328 49.4772834777832 103.68219757080078
      vertex 20.175661087036133 57.5558967590332 80.1337661743164
      vertex 47.937252044677734 64.54280853271484 0.0023961595725268126
    endloop
  endfacet
  facet normal -0.12307709634979823 0.9919928456969095 -0.028323531563874616
    outer loop
      vertex 22.807540893554688 78.45242309570312 93.23673248291016
      vertex 31.549957275390625 78.3998031616211 53.40448760986328
      vertex 12.166149139404297 77.12854766845703 93.11092376708984
    endloop
  endfacet
  facet normal 0.47937212305995536 0.864105479461794 -0.15337564342846077
    outer loop
      vertex 96.49878692626953 63.3152961730957 97.32095336914062
      vertex 107.00364685058594 57.752079010009766 98.81095886230469
      vertex 86.68122100830078 51.48964309692383 0.01163280475884676
    endloop
  endfacet
  facet normal 0.049011413534842396 -0.965250323658357 -0.2566898790773683
    outer loop
      vertex 86.60516357421875 30.01158905029297 93.46104431152344
      vertex 90.67267608642578 39.98853302001953 56.72062301635742
      vertex 95.80712127685547 30.816864013671875 92.18989562988281
    endloop
  endfacet
  facet normal 0.8644999477574377 -0.46711815548519764 -0.18558143534172428
    outer loop
      vertex 114.58303833007812 44.05373001098633 97.96295928955078
      vertex 110.49394989013672 37.034481048583984 96.58244323730469
      vertex 93.81807708740234 44.54064178466797 0.007297273259609938
    endloop
  endfacet
  facet normal 0.6067770043003334 0.7667668360101337 -0.20950008650910362
    outer loop
      vertex 65.49995422363281 93.88469696044922 96.92688751220703
      vertex 68.22380065917969 90.84999084472656 93.70901489257812
      vertex 59.57133483886719 72.09535217285156 0.007134982850402594
    endloop
  endfacet
  facet normal -0.1223293875898028 -0.9389157563961588 -0.3216717633286035
    outer loop
      vertex 46.55288314819336 18.22054100036621 93.95001220703125
      vertex 42.18132781982422 18.37293815612793 95.16765594482422
      vertex 65.49341583251953 47.936771392822266 0.00946047343313694
    endloop
  endfacet
  facet normal -0.12886148777409423 0.9911724991368882 -0.031173609405748565
    outer loop
      vertex 12.166149139404297 77.12854766845703 93.11092376708984
      vertex 31.549957275390625 78.3998031616211 53.40448760986328
      vertex 30.531841278076172 76.58804321289062 0.007698589004576206
    endloop
  endfacet
  facet normal 0.7184893518295271 0.6780718592743995 -0.15489223662838902
    outer loop
      vertex 96.49878692626953 63.3152961730957 97.32095336914062
      vertex 86.68122100830078 51.48964309692383 0.01163280475884676
      vertex 76.55266571044922 62.219757080078125 0.0021334493067115545
    endloop
  endfacet
  facet normal 0.4884383649059533 0.8666492648452835 -0.10172028033351233
    outer loop
      vertex 109.83596801757812 49.688270568847656 95.84806823730469
      vertex 93.18816375732422 47.82221984863281 0.01036404725164175
      vertex 86.68122100830078 51.48964309692383 0.01163280475884676
    endloop
  endfacet
  facet normal -0.7693590125441732 -0.6365941928142791 -0.053240430991790516
    outer loop
      vertex 95.80712127685547 30.816864013671875 92.18989562988281
      vertex 90.67267608642578 39.98853302001953 56.72062301635742
      vertex 90.91311645507812 44.441001892089844 0.00806888286024332
    endloop
  endfacet
  facet normal 0.9995785753773028 -0.01875515058768481 0.022156623684919646
    outer loop
      vertex 92.62741088867188 94.35066986083984 92.6150131225586
      vertex 92.4992446899414 83.11822509765625 88.88908386230469
      vertex 94.65425109863281 92.96961212158203 0.0066788471303880215
    endloop
  endfacet
  facet normal -0.7566285178722584 -0.6045740283017688 -0.24900508076222383
    outer loop
      vertex 18.451568603515625 15.933809280395508 109.13359832763672
      vertex 13.664312362670898 23.7913818359375 104.60232543945312
      vertex 37.491512298583984 37.05089569091797 0.007286640349775553
    endloop
  endfacet
  facet normal 0.05266036700165651 -0.9811911325581681 -0.1857171158953051
    outer loop
      vertex 41.027950286865234 34.22539520263672 0.012754696421325207
      vertex 46.152347564697266 34.501190185546875 0.008689663372933865
      vertex 34.43898010253906 15.158865928649902 98.87779998779297
    endloop
  endfacet
  facet normal -0.9203066400421378 0.3461997573179196 -0.18215766886783774
    outer loop
      vertex 0 63.810447692871094 89.93049621582031
      vertex 3.0861706733703613 75.29698944091797 96.16912841796875
      vertex 20.60589599609375 71.27184295654297 0.005051581654697657
    endloop
  endfacet
  facet normal 0.5680654762054343 -0.817748146223046 -0.09268000912961145
    outer loop
      vertex 34.43898010253906 15.158865928649902 98.87779998779297
      vertex 46.152347564697266 34.501190185546875 0.008689663372933865
      vertex 65.49341583251953 47.936771392822266 0.00946047343313694
    endloop
  endfacet
  facet normal 0.9616028718063685 0.18477353552723771 -0.20292525102241382
    outer loop
      vertex 114.58303833007812 44.05373001098633 97.96295928955078
      vertex 93.81807708740234 44.54064178466797 0.007297273259609938
      vertex 93.18816375732422 47.82221984863281 0.01036404725164175
    endloop
  endfacet
  facet normal 0.8911206933288714 -0.4531949567829013 -0.022764908688941664
    outer loop
      vertex 93.9109115600586 86.63058471679688 0.008647589944303036
      vertex 87.90174102783203 70.4439926147461 87.01911926269531
      vertex 89.82518768310547 78.59661865234375 0.012144636362791061
    endloop
  endfacet
  facet normal 0.8721245624805166 0.48498416489362844 0.06472331357862718
    outer loop
      vertex 87.90174102783203 70.4439926147461 87.01911926269531
      vertex 90.2210922241211 71.5610580444336 47.39626693725586
      vertex 89.82518768310547 78.59661865234375 0.012144636362791061
    endloop
  endfacet
  facet normal -0.9468978361373132 -0.2585337681057064 -0.19116688695362136
    outer loop
      vertex 34.56370162963867 41.6552619934082 0.009419211186468601
      vertex 16.118446350097656 35.301692962646484 99.96597290039062
      vertex 33.806671142578125 44.42582702636719 0.012274976819753647
    endloop
  endfacet
  facet normal -0.8294126425824617 0.5502298497141833 -0.09654936979537952
    outer loop
      vertex 16.118446350097656 35.301692962646484 99.96597290039062
      vertex 33.690879821777344 53.544857025146484 52.97586441040039
      vertex 33.806671142578125 44.42582702636719 0.012274976819753647
    endloop
  endfacet
  facet normal -0.3583985806983759 -0.9305940715527691 0.07446563868140531
    outer loop
      vertex 32.199825286865234 97.05323028564453 96.3410415649414
      vertex 41.0799446105957 85.92459869384766 0.006449871230870485
      vertex 42.97486114501953 85.19605255126953 0.02195574901998043
    endloop
  endfacet
  facet normal 0.9164762106317416 -0.3938103406481624 -0.07060291031297468
    outer loop
      vertex 77.47418975830078 21.17795181274414 91.57362365722656
      vertex 74.25054931640625 30.08924674987793 0.02285948395729065
      vertex 83.0037841796875 50.463890075683594 0
    endloop
  endfacet
  facet normal 0.9720214719427931 -0.20843470341250142 -0.10830158122349097
    outer loop
      vertex 80.86515808105469 10.127367973327637 97.80804443359375
      vertex 72.53258514404297 22.084775924682617 0.009113730862736702
      vertex 74.25054931640625 30.08924674987793 0.02285948395729065
    endloop
  endfacet
  facet normal -0.15609723044787632 -0.9796134650817664 -0.12645597525224844
    outer loop
      vertex 8.725703239440918 56.999908447265625 98.57465362548828
      vertex 28.0228271484375 66.64810943603516 0.012800263240933418
      vertex 20.175661087036133 57.5558967590332 80.1337661743164
    endloop
  endfacet
  facet normal -0.8669564916531272 -0.43880737802500897 -0.236293306234684
    outer loop
      vertex 0 63.810447692871094 89.93049621582031
      vertex 21.927898406982422 68.90718841552734 0.012488842941820621
      vertex 2.7190380096435547 57.96146011352539 90.81622314453125
    endloop
  endfacet
  facet normal -0.8483462984340647 -0.4750185639444667 -0.23380744607765877
    outer loop
      vertex 0 63.810447692871094 89.93049621582031
      vertex 20.60589599609375 71.27184295654297 0.005051581654697657
      vertex 21.927898406982422 68.90718841552734 0.012488842941820621
    endloop
  endfacet
  facet normal -0.7366533444506449 0.6580597905767468 -0.15588188520725407
    outer loop
      vertex 38.15983963012695 103.70164489746094 88.85234069824219
      vertex 47.271915435791016 92.85527801513672 0.0030189622193574905
      vertex 41.0799446105957 85.92459869384766 0.006449871230870485
    endloop
  endfacet
  facet normal 0.9894000907635043 0.06854924573286597 -0.12801742579283695
    outer loop
      vertex 53.256412506103516 90.338623046875 0.01845758594572544
      vertex 65.5955581665039 104.89002990722656 103.17503356933594
      vertex 53.86980056762695 81.46874237060547 0.009572356007993221
    endloop
  endfacet
  facet normal -0.8657740756581118 -0.49772192912601726 -0.0520397077760653
    outer loop
      vertex 68.11028289794922 24.394996643066406 0.016124289482831955
      vertex 61.008522033691406 31.774452209472656 47.58755111694336
      vertex 64.5207748413086 30.639320373535156 0.011625859886407852
    endloop
  endfacet
  facet normal 0.3848580959577413 0.9144062861701678 -0.12548063511260693
    outer loop
      vertex 49.64436340332031 104.53361511230469 92.38220977783203
      vertex 53.256412506103516 90.338623046875 0.01845758594572544
      vertex 47.271915435791016 92.85527801513672 0.0030189622193574905
    endloop
  endfacet
  facet normal -0.41879124200122125 -0.8804642119898414 -0.22225360970787808
    outer loop
      vertex 67.3665771484375 0 98.0589828491211
      vertex 56.48793029785156 6.0891804695129395 94.43508911132812
      vertex 68.11028289794922 24.394996643066406 0.016124289482831955
    endloop
  endfacet
  facet normal 0.10389700389996769 0.9945087893020106 -0.012557092882478589
    outer loop
      vertex 92.62741088867188 94.35066986083984 92.6150131225586
      vertex 94.65425109863281 92.96961212158203 0.0066788471303880215
      vertex 88.02915954589844 93.66175079345703 0.007542809471487999
    endloop
  endfacet
  facet normal 0.5643670149033446 -0.7996813322619521 -0.20493813535024996
    outer loop
      vertex 81.81011199951172 1.5602567195892334 105.6458969116211
      vertex 68.89556121826172 19.518556594848633 0.006875855848193169
      vertex 72.53258514404297 22.084775924682617 0.009113730862736702
    endloop
  endfacet
  facet normal 0.748544054053318 -0.6574453858284391 -0.08629811002749647
    outer loop
      vertex 91.07058715820312 66.4177474975586 93.94804382324219
      vertex 76.55266571044922 62.219757080078125 0.0021334493067115545
      vertex 90.2210922241211 71.5610580444336 47.39626693725586
    endloop
  endfacet
  facet normal -0.9557306723676031 0.2004373660641118 -0.2154152830721409
    outer loop
      vertex 21.408954620361328 49.4772834777832 103.68219757080078
      vertex 47.937252044677734 64.54280853271484 0.0023961595725268126
      vertex 33.690879821777344 53.544857025146484 52.97586441040039
    endloop
  endfacet
  facet normal 0.9931331061105299 -0.11645526185917082 0.011171639654191478
    outer loop
      vertex 92.4992446899414 83.11822509765625 88.88908386230469
      vertex 93.9109115600586 86.63058471679688 0.008647589944303036
      vertex 94.65425109863281 92.96961212158203 0.0066788471303880215
    endloop
  endfacet
  facet normal -0.8166963671776236 -0.5192017691102752 -0.2518661684141656
    outer loop
      vertex 13.664312362670898 23.7913818359375 104.60232543945312
      vertex 34.56370162963867 41.6552619934082 0.009419211186468601
      vertex 37.491512298583984 37.05089569091797 0.007286640349775553
    endloop
  endfacet
  facet normal -0.9862047932285248 -0.15872455976260386 -0.046974673402271294
    outer loop
      vertex 67.3665771484375 0 98.0589828491211
      vertex 68.11028289794922 24.394996643066406 0.016124289482831955
      vertex 68.89556121826172 19.518556594848633 0.006875855848193169
    endloop
  endfacet
  facet normal 0.17712024188512018 0.9835029430026824 -0.03674753079621887
    outer loop
      vertex 31.549957275390625 78.3998031616211 53.40448760986328
      vertex 45.58878707885742 73.87638854980469 0.006864591501653194
      vertex 30.531841278076172 76.58804321289062 0.007698589004576206
    endloop
  endfacet
  facet normal -0.6045161421085461 -0.7939451252035518 -0.0648950852970895
    outer loop
      vertex 90.67267608642578 39.98853302001953 56.72062301635742
      vertex 83.0037841796875 50.463890075683594 0
      vertex 90.91311645507812 44.441001892089844 0.00806888286024332
    endloop
  endfacet
  facet normal 0.7730715677305211 -0.6264700136693198 -0.09947699804395331
    outer loop
      vertex 89.82518768310547 78.59661865234375 0.012144636362791061
      vertex 90.2210922241211 71.5610580444336 47.39626693725586
      vertex 76.55266571044922 62.219757080078125 0.0021334493067115545
    endloop
  endfacet
  facet normal -0.8142018360103216 0.5718628793600341 -0.10024079732061345
    outer loop
      vertex 33.806671142578125 44.42582702636719 0.012274976819753647
      vertex 33.690879821777344 53.544857025146484 52.97586441040039
      vertex 47.937252044677734 64.54280853271484 0.0023961595725268126
    endloop
  endfacet
  facet normal 0.03386360348654551 -0.9884248802001049 -0.14788344248195803
    outer loop
      vertex 95.80712127685547 30.816864013671875 92.18989562988281
      vertex 90.91311645507812 44.441001892089844 0.00806888286024332
      vertex 93.81807708740234 44.54064178466797 0.007297273259609938
    endloop
  endfacet
  facet normal 0.8352331656644026 0.5081003391952488 -0.21028457928220393
    outer loop
      vertex 65.5955581665039 104.89002990722656 103.17503356933594
      vertex 59.57133483886719 72.09535217285156 0.007134982850402594
      vertex 53.86980056762695 81.46874237060547 0.009572356007993221
    endloop
  endfacet
  facet normal -0.9956235730720568 0.05597484769758036 -0.07483660313284997
    outer loop
      vertex 61.008522033691406 31.774452209472656 47.58755111694336
      vertex 65.49341583251953 47.936771392822266 0.00946047343313694
      vertex 64.5207748413086 30.639320373535156 0.011625859886407852
    endloop
  endfacet
  facet normal -0.10440637413617146 -0.9869948854666403 -0.1222309498549016
    outer loop
      vertex 20.175661087036133 57.5558967590332 80.1337661743164
      vertex 28.0228271484375 66.64810943603516 0.012800263240933418
      vertex 47.937252044677734 64.54280853271484 0.0023961595725268126
    endloop
  endfacet
  facet normal 0.05947162982468291 0.9952324077078114 0.07730187510085892
    outer loop
      vertex 55.00486373901367 54.59528350830078 93.92875671386719
      vertex 2.7190380096435547 57.96146011352539 90.81622314453125
      vertex 8.725703239440918 56.999908447265625 98.57465362548828
    endloop
  endfacet
  facet normal -0.050837350425810925 0.12638785263037444 0.9906773816481155
    outer loop
      vertex 55.00486373901367 54.59528350830078 93.92875671386719
      vertex 0 63.810447692871094 89.93049621582031
      vertex 2.7190380096435547 57.96146011352539 90.81622314453125
    endloop
  endfacet
  facet normal -0.13868308113861452 -0.4436302199946067 0.8854147225529048
    outer loop
      vertex 55.00486373901367 54.59528350830078 93.92875671386719
      vertex 3.0861706733703613 75.29698944091797 96.16912841796875
      vertex 0 63.810447692871094 89.93049621582031
    endloop
  endfacet
  facet normal 0.20920749345100859 0.4296137759634168 0.8784442089207494
    outer loop
      vertex 55.00486373901367 54.59528350830078 93.92875671386719
      vertex 12.166149139404297 77.12854766845703 93.11092376708984
      vertex 3.0861706733703613 75.29698944091797 96.16912841796875
    endloop
  endfacet
  facet normal -0.013210875370529396 0.01117341998282684 0.9998503025242487
    outer loop
      vertex 55.00486373901367 54.59528350830078 93.92875671386719
      vertex 22.807540893554688 78.45242309570312 93.23673248291016
      vertex 12.166149139404297 77.12854766845703 93.11092376708984
    endloop
  endfacet
  facet normal -0.28314763689995875 -0.35630396489722277 0.890435230837419
    outer loop
      vertex 55.00486373901367 54.59528350830078 93.92875671386719
      vertex 30.626752853393555 85.4759750366211 98.5335922241211
      vertex 22.807540893554688 78.45242309570312 93.23673248291016
    endloop
  endfacet
  facet normal 0.34064102770885574 0.13006100286892466 0.9311540290275203
    outer loop
      vertex 55.00486373901367 54.59528350830078 93.92875671386719
      vertex 32.199825286865234 97.05323028564453 96.3410415649414
      vertex 30.626752853393555 85.4759750366211 98.5335922241211
    endloop
  endfacet
  facet normal 0.5580459308235772 0.2548704775875008 0.7896998029286613
    outer loop
      vertex 55.00486373901367 54.59528350830078 93.92875671386719
      vertex 33.68858337402344 102.5785140991211 93.50575256347656
      vertex 32.199825286865234 97.05323028564453 96.3410415649414
    endloop
  endfacet
  facet normal 0.6521222099561506 0.29585499044166147 0.6980017535169025
    outer loop
      vertex 55.00486373901367 54.59528350830078 93.92875671386719
      vertex 38.15983963012695 103.70164489746094 88.85234069824219
      vertex 33.68858337402344 102.5785140991211 93.50575256347656
    endloop
  endfacet
  facet normal -0.29366701773276155 -0.0019193433646321732 0.9559058524860042
    outer loop
      vertex 55.00486373901367 54.59528350830078 93.92875671386719
      vertex 49.64436340332031 104.53361511230469 92.38220977783203
      vertex 38.15983963012695 103.70164489746094 88.85234069824219
    endloop
  endfacet
  facet normal -0.5595320550009854 -0.0344161620116427 0.8280938396213094
    outer loop
      vertex 55.00486373901367 54.59528350830078 93.92875671386719
      vertex 65.5955581665039 104.89002990722656 103.17503356933594
      vertex 49.64436340332031 104.53361511230469 92.38220977783203
    endloop
  endfacet
  facet normal 0.854058566622774 -0.2624114760767638 0.4491371527734782
    outer loop
      vertex 55.00486373901367 54.59528350830078 93.92875671386719
      vertex 65.49995422363281 93.88469696044922 96.92688751220703
      vertex 65.5955581665039 104.89002990722656 103.17503356933594
    endloop
  endfacet
  facet normal 0.6288692394224965 -0.2247826023953589 0.7443092511641521
    outer loop
      vertex 55.00486373901367 54.59528350830078 93.92875671386719
      vertex 68.22380065917969 90.84999084472656 93.70901489257812
      vertex 65.49995422363281 93.88469696044922 96.92688751220703
    endloop
  endfacet
  facet normal -0.3055973938344 0.1171520274520994 0.9449262592104662
    outer loop
      vertex 55.00486373901367 54.59528350830078 93.92875671386719
      vertex 86.0753173828125 101.50472259521484 98.161376953125
      vertex 68.22380065917969 90.84999084472656 93.70901489257812
    endloop
  endfacet
  facet normal 0.37622803689700246 -0.32740131229459346 0.8667530472749465
    outer loop
      vertex 55.00486373901367 54.59528350830078 93.92875671386719
      vertex 92.62741088867188 94.35066986083984 92.6150131225586
      vertex 86.0753173828125 101.50472259521484 98.161376953125
    endloop
  endfacet
  facet normal 0.3468467313869949 -0.29886001509624804 0.8890332031498195
    outer loop
      vertex 55.00486373901367 54.59528350830078 93.92875671386719
      vertex 92.4992446899414 83.11822509765625 88.88908386230469
      vertex 92.62741088867188 94.35066986083984 92.6150131225586
    endloop
  endfacet
  facet normal 0.31233485792355176 -0.2485738337686737 0.9168740293472263
    outer loop
      vertex 55.00486373901367 54.59528350830078 93.92875671386719
      vertex 87.90174102783203 70.4439926147461 87.01911926269531
      vertex 92.4992446899414 83.11822509765625 88.88908386230469
    endloop
  endfacet
  facet normal -0.25609520057055757 0.7803157561686016 0.5705458517242497
    outer loop
      vertex 55.00486373901367 54.59528350830078 93.92875671386719
      vertex 91.07058715820312 66.4177474975586 93.94804382324219
      vertex 87.90174102783203 70.4439926147461 87.01911926269531
    endloop
  endfacet
  facet normal -0.18349610479040376 0.558455235195827 0.8089851233546406
    outer loop
      vertex 55.00486373901367 54.59528350830078 93.92875671386719
      vertex 96.49878692626953 63.3152961730957 97.32095336914062
      vertex 91.07058715820312 66.4177474975586 93.94804382324219
    endloop
  endfacet
  facet normal -0.09802324794713706 0.08057231974900537 0.9919171054842023
    outer loop
      vertex 55.00486373901367 54.59528350830078 93.92875671386719
      vertex 107.00364685058594 57.752079010009766 98.81095886230469
      vertex 96.49878692626953 63.3152961730957 97.32095336914062
    endloop
  endfacet
  facet normal -0.06511562410895523 -0.3642257802213929 0.9290315045890633
    outer loop
      vertex 55.00486373901367 54.59528350830078 93.92875671386719
      vertex 109.83596801757812 49.688270568847656 95.84806823730469
      vertex 107.00364685058594 57.752079010009766 98.81095886230469
    endloop
  endfacet
  facet normal -0.0014316820489628684 0.3503479704321112 0.9366185188755406
    outer loop
      vertex 55.00486373901367 54.59528350830078 93.92875671386719
      vertex 114.58303833007812 44.05373001098633 97.96295928955078
      vertex 109.83596801757812 49.688270568847656 95.84806823730469
    endloop
  endfacet
  facet normal -0.09161599767890749 -0.1405176973886513 0.9858302519652611
    outer loop
      vertex 55.00486373901367 54.59528350830078 93.92875671386719
      vertex 110.49394989013672 37.034481048583984 96.58244323730469
      vertex 114.58303833007812 44.05373001098633 97.96295928955078
    endloop
  endfacet
  facet normal -0.14548996145188559 -0.31815809130201916 0.9368073975240507
    outer loop
      vertex 55.00486373901367 54.59528350830078 93.92875671386719
      vertex 95.80712127685547 30.816864013671875 92.18989562988281
      vertex 110.49394989013672 37.034481048583984 96.58244323730469
    endloop
  endfacet
  facet normal 0.12345893159503557 0.14000530794411273 0.9824237405299641
    outer loop
      vertex 55.00486373901367 54.59528350830078 93.92875671386719
      vertex 86.60516357421875 30.01158905029297 93.46104431152344
      vertex 95.80712127685547 30.816864013671875 92.18989562988281
    endloop
  endfacet
  facet normal -0.03908049411162324 -0.06919986924551351 0.9968370443941152
    outer loop
      vertex 55.00486373901367 54.59528350830078 93.92875671386719
      vertex 80.04108428955078 27.446813583374023 93.0256576538086
      vertex 86.60516357421875 30.01158905029297 93.46104431152344
    endloop
  endfacet
  facet normal -0.14527739495192155 -0.166417657306593 0.9752946436090834
    outer loop
      vertex 55.00486373901367 54.59528350830078 93.92875671386719
      vertex 77.47418975830078 21.17795181274414 91.57362365722656
      vertex 80.04108428955078 27.446813583374023 93.0256576538086
    endloop
  endfacet
  facet normal 0.7600915256957651 0.4802215286782136 0.43777637665758506
    outer loop
      vertex 55.00486373901367 54.59528350830078 93.92875671386719
      vertex 80.86515808105469 10.127367973327637 97.80804443359375
      vertex 77.47418975830078 21.17795181274414 91.57362365722656
    endloop
  endfacet
  facet normal 0.7619070365771019 0.4809323818915737 0.4338222120435929
    outer loop
      vertex 55.00486373901367 54.59528350830078 93.92875671386719
      vertex 81.81011199951172 1.5602567195892334 105.6458969116211
      vertex 80.86515808105469 10.127367973327637 97.80804443359375
    endloop
  endfacet
  facet normal -0.46152914854194405 -0.03744883939483467 0.8863342650908447
    outer loop
      vertex 55.00486373901367 54.59528350830078 93.92875671386719
      vertex 67.3665771484375 0 98.0589828491211
      vertex 81.81011199951172 1.5602567195892334 105.6458969116211
    endloop
  endfacet
  facet normal -0.31592225443866895 0.00024464752188816183 0.9487850490485076
    outer loop
      vertex 55.00486373901367 54.59528350830078 93.92875671386719
      vertex 56.48793029785156 6.0891804695129395 94.43508911132812
      vertex 67.3665771484375 0 98.0589828491211
    endloop
  endfacet
  facet normal -0.03744996716025804 0.0092857293894065 0.9992553603505975
    outer loop
      vertex 55.00486373901367 54.59528350830078 93.92875671386719
      vertex 46.55288314819336 18.22054100036621 93.95001220703125
      vertex 56.48793029785156 6.0891804695129395 94.43508911132812
    endloop
  endfacet
  facet normal 0.26583975833680396 -0.06120794330969217 0.9620721441571974
    outer loop
      vertex 55.00486373901367 54.59528350830078 93.92875671386719
      vertex 42.18132781982422 18.37293815612793 95.16765594482422
      vertex 46.55288314819336 18.22054100036621 93.95001220703125
    endloop
  endfacet
  facet normal 0.4740384435669792 -0.13807746524982478 0.8696103539004003
    outer loop
      vertex 55.00486373901367 54.59528350830078 93.92875671386719
      vertex 34.43898010253906 15.158865928649902 98.87779998779297
      vertex 42.18132781982422 18.37293815612793 95.16765594482422
    endloop
  endfacet
  facet normal 0.7331689181918201 -0.3061383740514706 0.6072418244246339
    outer loop
      vertex 55.00486373901367 54.59528350830078 93.92875671386719
      vertex 26.340675354003906 13.786683082580566 107.96371459960938
      vertex 34.43898010253906 15.158865928649902 98.87779998779297
    endloop
  endfacet
  facet normal 0.19524836974970597 0.19352688326213296 0.9614704465374518
    outer loop
      vertex 55.00486373901367 54.59528350830078 93.92875671386719
      vertex 18.451568603515625 15.933809280395508 109.13359832763672
      vertex 26.340675354003906 13.786683082580566 107.96371459960938
    endloop
  endfacet
  facet normal -0.10472377999108522 0.44816654340195217 0.8877948407596908
    outer loop
      vertex 55.00486373901367 54.59528350830078 93.92875671386719
      vertex 13.664312362670898 23.7913818359375 104.60232543945312
      vertex 18.451568603515625 15.933809280395508 109.13359832763672
    endloop
  endfacet
  facet normal -0.046040922545085725 0.381662936193598 0.9231541781237189
    outer loop
      vertex 55.00486373901367 54.59528350830078 93.92875671386719
      vertex 16.118446350097656 35.301692962646484 99.96597290039062
      vertex 13.664312362670898 23.7913818359375 104.60232543945312
    endloop
  endfacet
  facet normal 0.3098731092424217 -0.3476420996711678 0.8849427250984416
    outer loop
      vertex 55.00486373901367 54.59528350830078 93.92875671386719
      vertex 21.408954620361328 49.4772834777832 103.68219757080078
      vertex 16.118446350097656 35.301692962646484 99.96597290039062
    endloop
  endfacet
  facet normal 0.10826201672250159 0.6768754084204166 0.7280927256956157
    outer loop
      vertex 55.00486373901367 54.59528350830078 93.92875671386719
      vertex 8.725703239440918 56.999908447265625 98.57465362548828
      vertex 21.408954620361328 49.4772834777832 103.68219757080078
    endloop
  endfacet
  facet normal -0.0003845451904589704 -0.0011753443515667799 -0.9999992353450334
    outer loop
      vertex 60.427833557128906 59.97694396972656 0.008179986849427223
      vertex 28.0228271484375 66.64810943603516 0.012800263240933418
      vertex 21.927898406982422 68.90718841552734 0.012488842941820621
    endloop
  endfacet
  facet normal -0.0009668286775370317 -0.003685678866196339 -0.9999927404804516
    outer loop
      vertex 60.427833557128906 59.97694396972656 0.008179986849427223
      vertex 21.927898406982422 68.90718841552734 0.012488842941820621
      vertex 20.60589599609375 71.27184295654297 0.005051581654697657
    endloop
  endfacet
  facet normal 0.000550196398394499 0.0016628291023145214 -0.9999984661404736
    outer loop
      vertex 60.427833557128906 59.97694396972656 0.008179986849427223
      vertex 20.60589599609375 71.27184295654297 0.005051581654697657
      vertex 23.699676513671875 73.46080780029297 0.010393651202321053
    endloop
  endfacet
  facet normal -0.00020901617564367706 -0.00040515946494506204 -0.999999896079018
    outer loop
      vertex 60.427833557128906 59.97694396972656 0.008179986849427223
      vertex 23.699676513671875 73.46080780029297 0.010393651202321053
      vertex 30.531841278076172 76.58804321289062 0.007698589004576206
    endloop
  endfacet
  facet normal -0.0000896744366553977 -0.00019037296748625722 -0.9999999778583142
    outer loop
      vertex 60.427833557128906 59.97694396972656 0.008179986849427223
      vertex 30.531841278076172 76.58804321289062 0.007698589004576206
      vertex 45.58878707885742 73.87638854980469 0.006864591501653194
    endloop
  endfacet
  facet normal 0.0017065202819323715 0.0017272447697915655 -0.9999970522026715
    outer loop
      vertex 60.427833557128906 59.97694396972656 0.008179986849427223
      vertex 45.58878707885742 73.87638854980469 0.006864591501653194
      vertex 42.97486114501953 85.19605255126953 0.02195574901998043
    endloop
  endfacet
  facet normal -0.011434501839014425 -0.008459474795758214 0.9998988396102244
    outer loop
      vertex 60.427833557128906 59.97694396972656 0.008179986849427223
      vertex 42.97486114501953 85.19605255126953 0.02195574901998043
      vertex 41.0799446105957 85.92459869384766 0.006449871230870485
    endloop
  endfacet
  facet normal -0.0002613409865136852 -0.0002615462267242706 -0.9999999316472277
    outer loop
      vertex 60.427833557128906 59.97694396972656 0.008179986849427223
      vertex 41.0799446105957 85.92459869384766 0.006449871230870485
      vertex 47.271915435791016 92.85527801513672 0.0030189622193574905
    endloop
  endfacet
  facet normal 0.0030223098736559596 0.0010523727449791892 -0.9999948790642046
    outer loop
      vertex 60.427833557128906 59.97694396972656 0.008179986849427223
      vertex 47.271915435791016 92.85527801513672 0.0030189622193574905
      vertex 53.256412506103516 90.338623046875 0.01845758594572544
    endloop
  endfacet
  facet normal -0.003970284970917399 -0.0012762830671946162 0.9999913039315803
    outer loop
      vertex 60.427833557128906 59.97694396972656 0.008179986849427223
      vertex 53.256412506103516 90.338623046875 0.01845758594572544
      vertex 53.86980056762695 81.46874237060547 0.009572356007993221
    endloop
  endfacet
  facet normal -0.0006441031726315857 -0.00013175636125303139 -0.9999997838856587
    outer loop
      vertex 60.427833557128906 59.97694396972656 0.008179986849427223
      vertex 53.86980056762695 81.46874237060547 0.009572356007993221
      vertex 59.57133483886719 72.09535217285156 0.007134982850402594
    endloop
  endfacet
  facet normal 0.0011600912348323797 -0.000004240372999910961 -0.9999993270849467
    outer loop
      vertex 60.427833557128906 59.97694396972656 0.008179986849427223
      vertex 59.57133483886719 72.09535217285156 0.007134982850402594
      vertex 78.4134750366211 88.04673767089844 0.028925960883498192
    endloop
  endfacet
  facet normal -0.004242813139424534 0.00345764489301151 -0.9999850215020513
    outer loop
      vertex 60.427833557128906 59.97694396972656 0.008179986849427223
      vertex 78.4134750366211 88.04673767089844 0.028925960883498192
      vertex 88.02915954589844 93.66175079345703 0.007542809471487999
    endloop
  endfacet
  facet normal -0.00012194475726862282 0.00008100565086855762 -0.9999999892837802
    outer loop
      vertex 60.427833557128906 59.97694396972656 0.008179986849427223
      vertex 88.02915954589844 93.66175079345703 0.007542809471487999
      vertex 94.65425109863281 92.96961212158203 0.0066788471303880215
    endloop
  endfacet
  facet normal 0.00028808485315969423 -0.00034435684844995887 -0.9999998992127341
    outer loop
      vertex 60.427833557128906 59.97694396972656 0.008179986849427223
      vertex 94.65425109863281 92.96961212158203 0.0066788471303880215
      vertex 93.9109115600586 86.63058471679688 0.008647589944303036
    endloop
  endfacet
  facet normal 0.0006056475207966539 -0.0007432883849575744 -0.9999995403566231
    outer loop
      vertex 60.427833557128906 59.97694396972656 0.008179986849427223
      vertex 93.9109115600586 86.63058471679688 0.008647589944303036
      vertex 89.82518768310547 78.59661865234375 0.012144636362791061
    endloop
  endfacet
  facet normal -0.0005184513810410923 0.001031475945498056 -0.9999993336325477
    outer loop
      vertex 60.427833557128906 59.97694396972656 0.008179986849427223
      vertex 89.82518768310547 78.59661865234375 0.012144636362791061
      vertex 76.55266571044922 62.219757080078125 0.0021334493067115545
    endloop
  endfacet
  facet normal -0.0002226179139775544 -0.0010954354342223476 -0.9999993752310415
    outer loop
      vertex 60.427833557128906 59.97694396972656 0.008179986849427223
      vertex 76.55266571044922 62.219757080078125 0.0021334493067115545
      vertex 86.68122100830078 51.48964309692383 0.01163280475884676
    endloop
  endfacet
  facet normal 0.0005707156305717143 0.0013585478126317714 -0.9999989143151654
    outer loop
      vertex 60.427833557128906 59.97694396972656 0.008179986849427223
      vertex 86.68122100830078 51.48964309692383 0.01163280475884676
      vertex 93.18816375732422 47.82221984863281 0.01036404725164175
    endloop
  endfacet
  facet normal 0.00044510067223220055 0.001019980851188978 -0.9999993807620358
    outer loop
      vertex 60.427833557128906 59.97694396972656 0.008179986849427223
      vertex 93.18816375732422 47.82221984863281 0.01036404725164175
      vertex 93.81807708740234 44.54064178466797 0.007297273259609938
    endloop
  endfacet
  facet normal -0.000249097698892935 -0.00048163866565682545 -0.9999998529872552
    outer loop
      vertex 60.427833557128906 59.97694396972656 0.008179986849427223
      vertex 93.81807708740234 44.54064178466797 0.007297273259609938
      vertex 90.91311645507812 44.441001892089844 0.00806888286024332
    endloop
  endfacet
  facet normal 0.0020751601887956804 0.004064815650626399 0.9999895854377271
    outer loop
      vertex 60.427833557128906 59.97694396972656 0.008179986849427223
      vertex 90.91311645507812 44.441001892089844 0.00806888286024332
      vertex 83.0037841796875 50.463890075683594 0
    endloop
  endfacet
  facet normal -0.0007070957297592885 -0.0008181785326149689 -0.999999415299588
    outer loop
      vertex 60.427833557128906 59.97694396972656 0.008179986849427223
      vertex 83.0037841796875 50.463890075683594 0
      vertex 74.25054931640625 30.08924674987793 0.02285948395729065
    endloop
  endfacet
  facet normal 0.0032614914403552462 0.001017249893074756 -0.9999941639210899
    outer loop
      vertex 60.427833557128906 59.97694396972656 0.008179986849427223
      vertex 74.25054931640625 30.08924674987793 0.02285948395729065
      vertex 72.53258514404297 22.084775924682617 0.009113730862736702
    endloop
  endfacet
  facet normal 0.0005163136978986668 0.00014029562254096238 -0.9999998568686416
    outer loop
      vertex 60.427833557128906 59.97694396972656 0.008179986849427223
      vertex 72.53258514404297 22.084775924682617 0.009113730862736702
      vertex 68.89556121826172 19.518556594848633 0.006875855848193169
    endloop
  endfacet
  facet normal -0.038601036327589947 -0.008111202923928324 0.9992217813786702
    outer loop
      vertex 60.427833557128906 59.97694396972656 0.008179986849427223
      vertex 68.89556121826172 19.518556594848633 0.006875855848193169
      vertex 68.11028289794922 24.394996643066406 0.016124289482831955
    endloop
  endfacet
  facet normal 0.0013850282296393986 0.00007577196748068013 -0.9999990379772433
    outer loop
      vertex 60.427833557128906 59.97694396972656 0.008179986849427223
      vertex 68.11028289794922 24.394996643066406 0.016124289482831955
      vertex 64.5207748413086 30.639320373535156 0.011625859886407852
    endloop
  endfacet
  facet normal 0.00003948833876884392 0.00012296484680741088 0.9999999916601588
    outer loop
      vertex 60.427833557128906 59.97694396972656 0.008179986849427223
      vertex 64.5207748413086 30.639320373535156 0.011625859886407852
      vertex 65.49341583251953 47.936771392822266 0.00946047343313694
    endloop
  endfacet
  facet normal 0.0000880100700603253 -0.00006932328644475243 -0.9999999937242547
    outer loop
      vertex 60.427833557128906 59.97694396972656 0.008179986849427223
      vertex 65.49341583251953 47.936771392822266 0.00946047343313694
      vertex 46.152347564697266 34.501190185546875 0.008689663372933865
    endloop
  endfacet
  facet normal -0.0008168275135852172 0.00043770769311351945 -0.999999570602302
    outer loop
      vertex 60.427833557128906 59.97694396972656 0.008179986849427223
      vertex 46.152347564697266 34.501190185546875 0.008689663372933865
      vertex 41.027950286865234 34.22539520263672 0.012754696421325207
    endloop
  endfacet
  facet normal 0.0008766262149772401 -0.0008380525809436517 -0.9999992645969049
    outer loop
      vertex 60.427833557128906 59.97694396972656 0.008179986849427223
      vertex 41.027950286865234 34.22539520263672 0.012754696421325207
      vertex 37.491512298583984 37.05089569091797 0.007286640349775553
    endloop
  endfacet
  facet normal -0.0002592371554132033 0.00029831975728815733 -0.9999999219007069
    outer loop
      vertex 60.427833557128906 59.97694396972656 0.008179986849427223
      vertex 37.491512298583984 37.05089569091797 0.007286640349775553
      vertex 34.56370162963867 41.6552619934082 0.009419211186468601
    endloop
  endfacet
  facet normal -0.0006518980502632098 0.0008526266490839119 -0.9999994240281989
    outer loop
      vertex 60.427833557128906 59.97694396972656 0.008179986849427223
      vertex 34.56370162963867 41.6552619934082 0.009419211186468601
      vertex 33.806671142578125 44.42582702636719 0.012274976819753647
    endloop
  endfacet
  facet normal 0.00022561682317162013 -0.0006495463325671477 -0.9999997635932776
    outer loop
      vertex 60.427833557128906 59.97694396972656 0.008179986849427223
      vertex 33.806671142578125 44.42582702636719 0.012274976819753647
      vertex 47.937252044677734 64.54280853271484 0.0023961595725268126
    endloop
  endfacet
  facet normal 0.0009234077972783198 0.0037928598851536 0.9999923807369391
    outer loop
      vertex 60.427833557128906 59.97694396972656 0.008179986849427223
      vertex 47.937252044677734 64.54280853271484 0.0023961595725268126
      vertex 28.0228271484375 66.64810943603516 0.012800263240933418
    endloop
  endfacet
endsolid exported
