solid exported
  facet normal -0.970026784005304 -0.13979832725859032 -0.19875730428848973
    outer loop
      vertex 29.96958351135254 90.33108520507812 89.66822052001953
      vertex 49.74234390258789 80.60720825195312 0.007490018382668495
      vertex 29.76620101928711 83.07426452636719 95.7649917602539
    endloop
  endfacet
  facet normal -0.5864325024786794 -0.473550993742218 -0.657150193154009
    outer loop
      vertex 18.412797927856445 42.55299377441406 89.1719970703125
      vertex 8.06471061706543 52.682029724121094 91.10738372802734
      vertex 19.69209861755371 56.176414489746094 78.21315002441406
    endloop
  endfacet
  facet normal 0.19301385120148148 -0.9640163399338444 -0.1828063171362705
    outer loop
      vertex 34.06182098388672 14.992853164672852 97.79492950439453
      vertex 24.27960777282715 12.707921981811523 99.51592254638672
      vertex 42.13928985595703 35.152469635009766 0.013100186362862587
    endloop
  endfacet
  facet normal -0.9524642557917031 0.2634737417691278 -0.15294910538258086
    outer loop
      vertex 32.11866760253906 97.79826354980469 89.14830780029297
      vertex 45.98900604248047 96.1926040649414 0.007220632396638393
      vertex 29.96958351135254 90.33108520507812 89.66822052001953
    endloop
  endfacet
  facet normal -0.5372706154659448 -0.7557430406616441 -0.3744232127530795
    outer loop
      vertex 43.31420135498047 16.952938079833984 87.4139175415039
      vertex 56.26911163330078 29.306072235107422 43.89073944091797
      vertex 55.28559112548828 5.959572792053223 92.425048828125
    endloop
  endfacet
  facet normal -0.31667754962010863 0.9407087834177557 -0.12158254137535499
    outer loop
      vertex 2.9189045429229736 71.21599578857422 90.95689392089844
      vertex 11.663300514221191 73.94068908691406 89.26248168945312
      vertex 21.164831161499023 65.60366821289062 0.009281978011131287
    endloop
  endfacet
  facet normal 0.4196088434182441 -0.8964919108501029 -0.14223456789942027
    outer loop
      vertex 104.69336700439453 35.09028625488281 91.51216888427734
      vertex 96.865234375 31.15721321105957 93.20806121826172
      vertex 90.43057250976562 42.93240737915039 0.0070337895303964615
    endloop
  endfacet
  facet normal -0.021978637347211522 0.9927586977988744 -0.11809787231378385
    outer loop
      vertex 39.36780548095703 106.98436737060547 91.66500854492188
      vertex 51.128448486328125 107.65858459472656 95.1439208984375
      vertex 49.0225830078125 96.29408264160156 0.0031307663302868605
    endloop
  endfacet
  facet normal -0.15318495335735327 0.9856119349270464 -0.07143867156008264
    outer loop
      vertex 91.71928405761719 93.42565155029297 91.7070083618164
      vertex 79.82259368896484 84.93008422851562 0.0068396274000406265
      vertex 77.05632781982422 90.8690414428711 87.87601470947266
    endloop
  endfacet
  facet normal 0.8864701442108979 0.40524614094265393 -0.2234865738110381
    outer loop
      vertex 91.3573226928711 66.62686157226562 94.24383544921875
      vertex 93.77156066894531 61.52589797973633 94.57049560546875
      vertex 71.49285125732422 58.10728454589844 0.001992437057197094
    endloop
  endfacet
  facet normal -0.2345671834140432 -0.9383911019935338 -0.2537722919559265
    outer loop
      vertex 16.8408145904541 14.542845726013184 99.60663604736328
      vertex 42.13928985595703 35.152469635009766 0.013100186362862587
      vertex 24.27960777282715 12.707921981811523 99.51592254638672
    endloop
  endfacet
  facet normal 0.16604781422957193 -0.9671146432115468 -0.19265874045935188
    outer loop
      vertex 69.09619140625 0 100.57661437988281
      vertex 73.20860290527344 20.740468978881836 0.007306302431970835
      vertex 78.1093521118164 1.48967707157135 100.86690521240234
    endloop
  endfacet
  facet normal -0.7844000032514269 0.5892252453594525 -0.19372724416110032
    outer loop
      vertex 2.9189045429229736 71.21599578857422 90.95689392089844
      vertex 21.164831161499023 65.60366821289062 0.009281978011131287
      vertex 17.59124183654785 60.844730377197266 0.004312532488256693
    endloop
  endfacet
  facet normal 0.9810082060633551 0.19184223807372625 0.02862613014749591
    outer loop
      vertex 78.1093521118164 1.48967707157135 100.86690521240234
      vertex 76.77244567871094 23.375730514526367 0.009646468795835972
      vertex 76.75517272949219 9.612643241882324 92.8369369506836
    endloop
  endfacet
  facet normal -0.6172237480440709 0.7726146684187362 -0.14866545999200903
    outer loop
      vertex 29.76620101928711 83.07426452636719 95.7649917602539
      vertex 49.74234390258789 80.60720825195312 0.007490018382668495
      vertex 22.039722442626953 75.81130981445312 90.09790802001953
    endloop
  endfacet
  facet normal -0.2753017527015892 0.9585475859896654 -0.07345386547226765
    outer loop
      vertex 77.05632781982422 90.8690414428711 87.87601470947266
      vertex 79.82259368896484 84.93008422851562 0.0068396274000406265
      vertex 74.201416015625 83.31721496582031 0.027372173964977264
    endloop
  endfacet
  facet normal 0.9605665835526311 -0.22494523303488756 -0.16343647297010092
    outer loop
      vertex 91.3573226928711 66.62686157226562 94.24383544921875
      vertex 82.38631439208984 65.34671020507812 43.2803840637207
      vertex 92.74761962890625 74.32746124267578 91.81634521484375
    endloop
  endfacet
  facet normal 0.8828714478616752 0.46068113983214093 -0.09116410452359429
    outer loop
      vertex 105.18140411376953 47.582611083984375 91.7862777709961
      vertex 108.35966491699219 41.661033630371094 92.64228057861328
      vertex 95.07460021972656 48.79029846191406 0.010573850013315678
    endloop
  endfacet
  facet normal 0.3756707632982571 -0.9056013881092204 -0.19686950870451775
    outer loop
      vertex 77.94993591308594 26.729740142822266 90.59526824951172
      vertex 72.94339752197266 44.34746551513672 0
      vertex 84.71470642089844 29.35647964477539 91.42092895507812
    endloop
  endfacet
  facet normal -0.9593283971096925 0.19772264033675158 -0.2014814730867618
    outer loop
      vertex 18.412797927856445 42.55299377441406 89.1719970703125
      vertex 28.29477882385254 44.968841552734375 44.49098205566406
      vertex 15.325878143310547 33.56585693359375 95.05049896240234
    endloop
  endfacet
  facet normal -0.7607596494687744 0.635916112021049 -0.1298285569979895
    outer loop
      vertex 39.36780548095703 106.98436737060547 91.66500854492188
      vertex 45.98900604248047 96.1926040649414 0.007220632396638393
      vertex 32.11866760253906 97.79826354980469 89.14830780029297
    endloop
  endfacet
  facet normal -0.6122400084402774 -0.728908112037391 -0.3063578565519991
    outer loop
      vertex 16.8408145904541 14.542845726013184 99.60663604736328
      vertex 38.589752197265625 38.136226654052734 0.007500087842345238
      vertex 42.13928985595703 35.152469635009766 0.013100186362862587
    endloop
  endfacet
  facet normal -0.9615090298122496 -0.2394973439020691 -0.13469004363114748
    outer loop
      vertex 55.28559112548828 5.959572792053223 92.425048828125
      vertex 56.26911163330078 29.306072235107422 43.89073944091797
      vertex 64.00482940673828 22.924551010131836 0.015152372419834137
    endloop
  endfacet
  facet normal -0.2561259593001131 0.9503148291864157 -0.1769215035008189
    outer loop
      vertex 66.64208221435547 88.74369049072266 91.53643035888672
      vertex 77.05632781982422 90.8690414428711 87.87601470947266
      vertex 57.129005432128906 69.13955688476562 0.006842459551990032
    endloop
  endfacet
  facet normal 0.2672168837378433 -0.9460172394316891 -0.1834298769107203
    outer loop
      vertex 41.20398712158203 17.947237014770508 92.96261596679688
      vertex 34.06182098388672 14.992853164672852 97.79492950439453
      vertex 54.1356086730957 39.62362289428711 0.007819848135113716
    endloop
  endfacet
  facet normal -0.9497908769587685 -0.2546187292888201 -0.1818422193585412
    outer loop
      vertex 29.96958351135254 90.33108520507812 89.66822052001953
      vertex 46.588539123535156 92.36003112792969 0.02380196750164032
      vertex 49.74234390258789 80.60720825195312 0.007490018382668495
    endloop
  endfacet
  facet normal 0.9439526967304966 -0.3094152864229152 -0.11495863109418147
    outer loop
      vertex 97.21246337890625 87.35343933105469 93.41835021972656
      vertex 92.74761962890625 74.32746124267578 91.81634521484375
      vertex 81.99710845947266 75.64038848876953 0.007550532463937998
    endloop
  endfacet
  facet normal -0.9813141842150696 0.03472667566823869 -0.18925255574323288
    outer loop
      vertex 13.446290969848633 23.41177749633789 102.93334197998047
      vertex 15.325878143310547 33.56585693359375 95.05049896240234
      vertex 33.91372299194336 40.871925354003906 0.009242081083357334
    endloop
  endfacet
  facet normal -0.7253473397002568 0.6739608641660202 -0.1401712893653747
    outer loop
      vertex 21.164831161499023 65.60366821289062 0.009281978011131287
      vertex 11.663300514221191 73.94068908691406 89.26248168945312
      vertex 29.90097999572754 75.00554656982422 0.007539517246186733
    endloop
  endfacet
  facet normal -0.6381821030895345 0.7685499184728728 -0.045327983757933406
    outer loop
      vertex 77.05632781982422 90.8690414428711 87.87601470947266
      vertex 74.201416015625 83.31721496582031 0.027372173964977264
      vertex 57.129005432128906 69.13955688476562 0.006842459551990032
    endloop
  endfacet
  facet normal -0.8969879741473603 -0.3378480372943603 -0.28508117779215614
    outer loop
      vertex 8.06471061706543 52.682029724121094 91.10738372802734
      vertex 2.894648313522339 61.704933166503906 96.68163299560547
      vertex 29.991939544677734 71.33134460449219 0.013699714094400406
    endloop
  endfacet
  facet normal 0.5720709455752064 -0.8163847771225206 0.07906155140965436
    outer loop
      vertex 2.894648313522339 61.704933166503906 96.68163299560547
      vertex 20.606361389160156 64.75433349609375 0.011736173182725906
      vertex 29.991939544677734 71.33134460449219 0.013699714094400406
    endloop
  endfacet
  facet normal 0.39219691686902924 0.9042726602385109 0.16873806429965515
    outer loop
      vertex 22.039722442626953 75.81130981445312 90.09790802001953
      vertex 49.74234390258789 80.60720825195312 0.007490018382668495
      vertex 31.591320037841797 78.50259399414062 53.47450637817383
    endloop
  endfacet
  facet normal 0.7070430664566361 0.7018823173904825 -0.08632099808368221
    outer loop
      vertex 51.128448486328125 107.65858459472656 95.1439208984375
      vertex 61.112579345703125 97.72154998779297 96.12376403808594
      vertex 54.5426025390625 92.52037811279297 0.018903352320194244
    endloop
  endfacet
  facet normal 0.9805067506199765 0.17349458750614358 -0.09222873790054989
    outer loop
      vertex 62.24005889892578 89.21211242675781 92.10289001464844
      vertex 57.129005432128906 69.13955688476562 0.006842459551990032
      vertex 61.112579345703125 97.72154998779297 96.12376403808594
    endloop
  endfacet
  facet normal 0.6179583816546935 0.7851172277405334 -0.041453314074170716
    outer loop
      vertex 98.21463012695312 53.00846862792969 90.69487762451172
      vertex 105.18140411376953 47.582611083984375 91.7862777709961
      vertex 90.88707733154297 53.987972259521484 0.012197240255773067
    endloop
  endfacet
  facet normal 0.4101605383928254 -0.8900899222862644 -0.19876685586319334
    outer loop
      vertex 84.71470642089844 29.35647964477539 91.42092895507812
      vertex 72.94339752197266 44.34746551513672 0
      vertex 89.52497863769531 39.48237609863281 56.00267791748047
    endloop
  endfacet
  facet normal 0.9642331958610625 0.2650496298321165 -0.0017429071747516631
    outer loop
      vertex 77.94993591308594 26.729740142822266 90.59526824951172
      vertex 79.34146881103516 21.68838119506836 93.78072357177734
      vertex 72.94339752197266 44.34746551513672 0
    endloop
  endfacet
  facet normal 0.9775058603695597 -0.20572246561802035 -0.046481825299892386
    outer loop
      vertex 79.34146881103516 21.68838119506836 93.78072357177734
      vertex 76.75517272949219 9.612643241882324 92.8369369506836
      vertex 76.87503051757812 31.152788162231445 0.023667480796575546
    endloop
  endfacet
  facet normal 0.1354731448472775 -0.9629940235100545 -0.23300115387934292
    outer loop
      vertex 43.31420135498047 16.952938079833984 87.4139175415039
      vertex 54.1356086730957 39.62362289428711 0.007819848135113716
      vertex 56.26911163330078 29.306072235107422 43.89073944091797
    endloop
  endfacet
  facet normal -0.9260218782836068 -0.17995610917365454 -0.3318121150759577
    outer loop
      vertex 18.412797927856445 42.55299377441406 89.1719970703125
      vertex 19.69209861755371 56.176414489746094 78.21315002441406
      vertex 46.47367858886719 62.5722541809082 0.002323002554476261
    endloop
  endfacet
  facet normal -0.17934620621515204 0.9834556115759472 0.025495065718918977
    outer loop
      vertex 22.039722442626953 75.81130981445312 90.09790802001953
      vertex 31.591320037841797 78.50259399414062 53.47450637817383
      vertex 11.663300514221191 73.94068908691406 89.26248168945312
    endloop
  endfacet
  facet normal 0.8722481583046697 0.4846917608521005 -0.06524605195873687
    outer loop
      vertex 93.77156066894531 61.52589797973633 94.57049560546875
      vertex 98.21463012695312 53.00846862792969 90.69487762451172
      vertex 90.88707733154297 53.987972259521484 0.012197240255773067
    endloop
  endfacet
  facet normal 0.17762918747421985 -0.9523012029773177 -0.24813361433953673
    outer loop
      vertex 84.71470642089844 29.35647964477539 91.42092895507812
      vertex 89.52497863769531 39.48237609863281 56.00267791748047
      vertex 96.865234375 31.15721321105957 93.20806121826172
    endloop
  endfacet
  facet normal 0.8722765969051579 -0.4565923473925074 -0.17509130987618074
    outer loop
      vertex 108.35966491699219 41.661033630371094 92.64228057861328
      vertex 104.69336700439453 35.09028625488281 91.51216888427734
      vertex 90.43057250976562 42.93240737915039 0.0070337895303964615
    endloop
  endfacet
  facet normal 0.07573667116787998 0.9733733468201587 -0.2163522228694017
    outer loop
      vertex 62.24005889892578 89.21211242675781 92.10289001464844
      vertex 66.64208221435547 88.74369049072266 91.53643035888672
      vertex 57.129005432128906 69.13955688476562 0.006842459551990032
    endloop
  endfacet
  facet normal -0.8397825232570679 -0.4911583587329909 -0.23136287575734119
    outer loop
      vertex 43.31420135498047 16.952938079833984 87.4139175415039
      vertex 41.20398712158203 17.947237014770508 92.96261596679688
      vertex 54.1356086730957 39.62362289428711 0.007819848135113716
    endloop
  endfacet
  facet normal -0.31104028275471235 0.9489602461971242 -0.052234027619573555
    outer loop
      vertex 11.663300514221191 73.94068908691406 89.26248168945312
      vertex 31.591320037841797 78.50259399414062 53.47450637817383
      vertex 29.90097999572754 75.00554656982422 0.007539517246186733
    endloop
  endfacet
  facet normal 0.20707182648047237 0.9747113614587581 -0.08401797736946112
    outer loop
      vertex 93.77156066894531 61.52589797973633 94.57049560546875
      vertex 90.88707733154297 53.987972259521484 0.012197240255773067
      vertex 71.49285125732422 58.10728454589844 0.001992437057197094
    endloop
  endfacet
  facet normal 0.776376919412207 0.6255146992846898 -0.07726732804229391
    outer loop
      vertex 105.18140411376953 47.582611083984375 91.7862777709961
      vertex 95.07460021972656 48.79029846191406 0.010573850013315678
      vertex 90.88707733154297 53.987972259521484 0.012197240255773067
    endloop
  endfacet
  facet normal -0.9214251503645451 -0.3760896270494025 0.09763342000317622
    outer loop
      vertex 96.865234375 31.15721321105957 93.20806121826172
      vertex 89.52497863769531 39.48237609863281 56.00267791748047
      vertex 83.12228393554688 40.63261032104492 0.007377416826784611
    endloop
  endfacet
  facet normal 0.7541525479411879 0.6340429283917342 -0.17100730800246183
    outer loop
      vertex 91.71928405761719 93.42565155029297 91.7070083618164
      vertex 97.21246337890625 87.35343933105469 93.41835021972656
      vertex 81.86776733398438 80.41070556640625 0.005776626989245415
    endloop
  endfacet
  facet normal -0.9297264590776515 -0.25687056162084704 -0.26386781892364675
    outer loop
      vertex 16.8408145904541 14.542845726013184 99.60663604736328
      vertex 13.446290969848633 23.41177749633789 102.93334197998047
      vertex 38.589752197265625 38.136226654052734 0.007500087842345238
    endloop
  endfacet
  facet normal -0.33630206838697907 -0.9164763595764703 -0.21673024970248164
    outer loop
      vertex 42.13928985595703 35.152469635009766 0.013100186362862587
      vertex 45.41637420654297 33.95101547241211 0.008551093749701977
      vertex 34.06182098388672 14.992853164672852 97.79492950439453
    endloop
  endfacet
  facet normal -0.8987879176204531 0.3950513907738283 -0.1900386218302841
    outer loop
      vertex 0 64.65180206298828 91.11624145507812
      vertex 2.9189045429229736 71.21599578857422 90.95689392089844
      vertex 17.59124183654785 60.844730377197266 0.004312532488256693
    endloop
  endfacet
  facet normal 0.5426645945424357 -0.8341299403709901 -0.09870349743946503
    outer loop
      vertex 34.06182098388672 14.992853164672852 97.79492950439453
      vertex 45.41637420654297 33.95101547241211 0.008551093749701977
      vertex 54.1356086730957 39.62362289428711 0.007819848135113716
    endloop
  endfacet
  facet normal 0.7738010322321563 -0.6133595732804479 -0.15818342638113586
    outer loop
      vertex 108.35966491699219 41.661033630371094 92.64228057861328
      vertex 90.43057250976562 42.93240737915039 0.0070337895303964615
      vertex 95.07460021972656 48.79029846191406 0.010573850013315678
    endloop
  endfacet
  facet normal 0.8466097113509669 -0.5214308498466428 -0.10659205164758025
    outer loop
      vertex 81.99710845947266 75.64038848876953 0.007550532463937998
      vertex 92.74761962890625 74.32746124267578 91.81634521484375
      vertex 76.79732513427734 67.19729614257812 0.010383229702711105
    endloop
  endfacet
  facet normal 0.9292763564256615 -0.343934032769928 -0.13473987713687696
    outer loop
      vertex 92.74761962890625 74.32746124267578 91.81634521484375
      vertex 82.38631439208984 65.34671020507812 43.2803840637207
      vertex 76.79732513427734 67.19729614257812 0.010383229702711105
    endloop
  endfacet
  facet normal -0.9131179426206327 0.37932553780454814 -0.14942476111258535
    outer loop
      vertex 33.91372299194336 40.871925354003906 0.009242081083357334
      vertex 15.325878143310547 33.56585693359375 95.05049896240234
      vertex 37.292083740234375 49.00605773925781 0.013540508225560188
    endloop
  endfacet
  facet normal -0.91695361053048 0.36890482388997015 -0.15200429943204527
    outer loop
      vertex 15.325878143310547 33.56585693359375 95.05049896240234
      vertex 28.29477882385254 44.968841552734375 44.49098205566406
      vertex 37.292083740234375 49.00605773925781 0.013540508225560188
    endloop
  endfacet
  facet normal -0.9710898889723333 -0.1527023596835504 -0.18348410525922118
    outer loop
      vertex 29.96958351135254 90.33108520507812 89.66822052001953
      vertex 45.98900604248047 96.1926040649414 0.007220632396638393
      vertex 46.588539123535156 92.36003112792969 0.02380196750164032
    endloop
  endfacet
  facet normal 0.9583517346042421 0.2855676422427254 0.0036158657291762725
    outer loop
      vertex 79.34146881103516 21.68838119506836 93.78072357177734
      vertex 76.87503051757812 31.152788162231445 0.023667480796575546
      vertex 72.94339752197266 44.34746551513672 0
    endloop
  endfacet
  facet normal 0.9999114915321252 -0.013186344003978459 -0.0017690205792101799
    outer loop
      vertex 76.75517272949219 9.612643241882324 92.8369369506836
      vertex 76.77244567871094 23.375730514526367 0.009646468795835972
      vertex 76.87503051757812 31.152788162231445 0.023667480796575546
    endloop
  endfacet
  facet normal 0.09818875852781547 -0.9793261948617512 -0.17685918623687552
    outer loop
      vertex 8.06471061706543 52.682029724121094 91.10738372802734
      vertex 29.991939544677734 71.33134460449219 0.013699714094400406
      vertex 19.69209861755371 56.176414489746094 78.21315002441406
    endloop
  endfacet
  facet normal -0.5728907167755373 -0.8091778411486203 -0.1304892640276161
    outer loop
      vertex 0 64.65180206298828 91.11624145507812
      vertex 20.606361389160156 64.75433349609375 0.011736173182725906
      vertex 2.894648313522339 61.704933166503906 96.68163299560547
    endloop
  endfacet
  facet normal 0.7793993522451532 -0.6014129649566546 0.1756106355033239
    outer loop
      vertex 0 64.65180206298828 91.11624145507812
      vertex 17.59124183654785 60.844730377197266 0.004312532488256693
      vertex 20.606361389160156 64.75433349609375 0.011736173182725906
    endloop
  endfacet
  facet normal -0.03335513224636861 0.9923046380324727 -0.11924319893423968
    outer loop
      vertex 39.36780548095703 106.98436737060547 91.66500854492188
      vertex 49.0225830078125 96.29408264160156 0.0031307663302868605
      vertex 45.98900604248047 96.1926040649414 0.007220632396638393
    endloop
  endfacet
  facet normal 0.9629741147862576 0.25752251903851897 -0.07976845516668561
    outer loop
      vertex 54.5426025390625 92.52037811279297 0.018903352320194244
      vertex 61.112579345703125 97.72154998779297 96.12376403808594
      vertex 56.45272445678711 85.37496185302734 0.010031326673924923
    endloop
  endfacet
  facet normal -0.8016761467239575 -0.5952443425452357 -0.0547679508628736
    outer loop
      vertex 64.00482940673828 22.924551010131836 0.015152372419834137
      vertex 56.26911163330078 29.306072235107422 43.89073944091797
      vertex 59.904563903808594 28.44719696044922 0.010794074274599552
    endloop
  endfacet
  facet normal 0.56112752805712 0.8203328026813299 -0.11040828819205666
    outer loop
      vertex 51.128448486328125 107.65858459472656 95.1439208984375
      vertex 54.5426025390625 92.52037811279297 0.018903352320194244
      vertex 49.0225830078125 96.29408264160156 0.0031307663302868605
    endloop
  endfacet
  facet normal -0.2868479145666814 -0.9370590892227928 -0.19909429226800038
    outer loop
      vertex 69.09619140625 0 100.57661437988281
      vertex 55.28559112548828 5.959572792053223 92.425048828125
      vertex 64.00482940673828 22.924551010131836 0.015152372419834137
    endloop
  endfacet
  facet normal 0.9001005298294756 0.4073626699939999 -0.15451437245789426
    outer loop
      vertex 91.71928405761719 93.42565155029297 91.7070083618164
      vertex 81.86776733398438 80.41070556640625 0.005776626989245415
      vertex 79.82259368896484 84.93008422851562 0.0068396274000406265
    endloop
  endfacet
  facet normal 0.5849851370977766 -0.7909557224834324 -0.17939184609509815
    outer loop
      vertex 78.1093521118164 1.48967707157135 100.86690521240234
      vertex 73.20860290527344 20.740468978881836 0.007306302431970835
      vertex 76.77244567871094 23.375730514526367 0.009646468795835972
    endloop
  endfacet
  facet normal 0.8737496031698041 -0.46514877113083575 -0.142120553320353
    outer loop
      vertex 91.3573226928711 66.62686157226562 94.24383544921875
      vertex 71.49285125732422 58.10728454589844 0.001992437057197094
      vertex 82.38631439208984 65.34671020507812 43.2803840637207
    endloop
  endfacet
  facet normal -0.8645888413359449 0.47441913834720134 -0.16556755904242576
    outer loop
      vertex 18.412797927856445 42.55299377441406 89.1719970703125
      vertex 46.47367858886719 62.5722541809082 0.002323002554476261
      vertex 28.29477882385254 44.968841552734375 44.49098205566406
    endloop
  endfacet
  facet normal 0.9861048869856706 0.026676015424690763 -0.16396811294895008
    outer loop
      vertex 97.21246337890625 87.35343933105469 93.41835021972656
      vertex 81.99710845947266 75.64038848876953 0.007550532463937998
      vertex 81.86776733398438 80.41070556640625 0.005776626989245415
    endloop
  endfacet
  facet normal -0.49032503260050897 -0.837942002385139 -0.2396550918384452
    outer loop
      vertex 13.446290969848633 23.41177749633789 102.93334197998047
      vertex 33.91372299194336 40.871925354003906 0.009242081083357334
      vertex 38.589752197265625 38.136226654052734 0.007500087842345238
    endloop
  endfacet
  facet normal -0.2261236333251406 -0.9521517255438807 -0.20560932370796656
    outer loop
      vertex 69.09619140625 0 100.57661437988281
      vertex 64.00482940673828 22.924551010131836 0.015152372419834137
      vertex 73.20860290527344 20.740468978881836 0.007306302431970835
    endloop
  endfacet
  facet normal -0.2713014795340316 0.9609628964898121 -0.05427539748869541
    outer loop
      vertex 31.591320037841797 78.50259399414062 53.47450637817383
      vertex 49.74234390258789 80.60720825195312 0.007490018382668495
      vertex 29.90097999572754 75.00554656982422 0.007539517246186733
    endloop
  endfacet
  facet normal -0.34278334007755096 -0.9392036424422865 0.019902255862590677
    outer loop
      vertex 89.52497863769531 39.48237609863281 56.00267791748047
      vertex 72.94339752197266 44.34746551513672 0
      vertex 83.12228393554688 40.63261032104492 0.007377416826784611
    endloop
  endfacet
  facet normal 0.8561981853805565 -0.4995124303523202 -0.13195453487683081
    outer loop
      vertex 76.79732513427734 67.19729614257812 0.010383229702711105
      vertex 82.38631439208984 65.34671020507812 43.2803840637207
      vertex 71.49285125732422 58.10728454589844 0.001992437057197094
    endloop
  endfacet
  facet normal -0.8226223384882897 0.556654558742978 -0.11588006925575241
    outer loop
      vertex 37.292083740234375 49.00605773925781 0.013540508225560188
      vertex 28.29477882385254 44.968841552734375 44.49098205566406
      vertex 46.47367858886719 62.5722541809082 0.002323002554476261
    endloop
  endfacet
  facet normal 0.29721587730537263 -0.9445127196071884 -0.1398515097445509
    outer loop
      vertex 96.865234375 31.15721321105957 93.20806121826172
      vertex 83.12228393554688 40.63261032104492 0.007377416826784611
      vertex 90.43057250976562 42.93240737915039 0.0070337895303964615
    endloop
  endfacet
  facet normal 0.9976909233022355 0.04156906932959206 -0.053710651042457036
    outer loop
      vertex 61.112579345703125 97.72154998779297 96.12376403808594
      vertex 57.129005432128906 69.13955688476562 0.006842459551990032
      vertex 56.45272445678711 85.37496185302734 0.010031326673924923
    endloop
  endfacet
  facet normal -0.8867474134732312 -0.4577311244555097 -0.0645076925895588
    outer loop
      vertex 56.26911163330078 29.306072235107422 43.89073944091797
      vertex 54.1356086730957 39.62362289428711 0.007819848135113716
      vertex 59.904563903808594 28.44719696044922 0.010794074274599552
    endloop
  endfacet
  facet normal -0.45717266933392586 -0.8599544901147127 -0.2268731481370974
    outer loop
      vertex 19.69209861755371 56.176414489746094 78.21315002441406
      vertex 29.991939544677734 71.33134460449219 0.013699714094400406
      vertex 46.47367858886719 62.5722541809082 0.002323002554476261
    endloop
  endfacet
  facet normal -0.010431821514400147 -0.5298710494057782 0.8480140612640283
    outer loop
      vertex 54.029685974121094 53.62736892700195 92.26350402832031
      vertex 2.894648313522339 61.704933166503906 96.68163299560547
      vertex 8.06471061706543 52.682029724121094 91.10738372802734
    endloop
  endfacet
  facet normal 0.17641052477514596 0.9048840338819916 0.3873812230529664
    outer loop
      vertex 54.029685974121094 53.62736892700195 92.26350402832031
      vertex 0 64.65180206298828 91.11624145507812
      vertex 2.894648313522339 61.704933166503906 96.68163299560547
    endloop
  endfacet
  facet normal -0.014917612748905388 0.03089439815449011 0.9994113272284569
    outer loop
      vertex 54.029685974121094 53.62736892700195 92.26350402832031
      vertex 2.9189045429229736 71.21599578857422 90.95689392089844
      vertex 0 64.65180206298828 91.11624145507812
    endloop
  endfacet
  facet normal 0.08461544112439606 0.3160817695900046 0.9449510791867348
    outer loop
      vertex 54.029685974121094 53.62736892700195 92.26350402832031
      vertex 11.663300514221191 73.94068908691406 89.26248168945312
      vertex 2.9189045429229736 71.21599578857422 90.95689392089844
    endloop
  endfacet
  facet normal -0.07762443090196681 -0.01462198014158424 0.9968754412783399
    outer loop
      vertex 54.029685974121094 53.62736892700195 92.26350402832031
      vertex 22.039722442626953 75.81130981445312 90.09790802001953
      vertex 11.663300514221191 73.94068908691406 89.26248168945312
    endloop
  endfacet
  facet normal -0.3085913393019347 -0.35901099826195426 0.8808419202301815
    outer loop
      vertex 54.029685974121094 53.62736892700195 92.26350402832031
      vertex 29.76620101928711 83.07426452636719 95.7649917602539
      vertex 22.039722442626953 75.81130981445312 90.09790802001953
    endloop
  endfacet
  facet normal 0.6586326919987989 0.473121282797855 0.585114714217757
    outer loop
      vertex 54.029685974121094 53.62736892700195 92.26350402832031
      vertex 29.96958351135254 90.33108520507812 89.66822052001953
      vertex 29.76620101928711 83.07426452636719 95.7649917602539
    endloop
  endfacet
  facet normal -0.0011448586433048088 0.0697860931574295 0.9975613216742665
    outer loop
      vertex 54.029685974121094 53.62736892700195 92.26350402832031
      vertex 32.11866760253906 97.79826354980469 89.14830780029297
      vertex 29.96958351135254 90.33108520507812 89.66822052001953
    endloop
  endfacet
  facet normal -0.2584391236419805 -0.06020136550335734 0.9641498923729114
    outer loop
      vertex 54.029685974121094 53.62736892700195 92.26350402832031
      vertex 39.36780548095703 106.98436737060547 91.66500854492188
      vertex 32.11866760253906 97.79826354980469 89.14830780029297
    endloop
  endfacet
  facet normal -0.2795544498649417 -0.06607423566573142 0.9578535926444601
    outer loop
      vertex 54.029685974121094 53.62736892700195 92.26350402832031
      vertex 51.128448486328125 107.65858459472656 95.1439208984375
      vertex 39.36780548095703 106.98436737060547 91.66500854492188
    endloop
  endfacet
  facet normal -0.15744205030891734 -0.060998779610396944 0.9856425060236427
    outer loop
      vertex 54.029685974121094 53.62736892700195 92.26350402832031
      vertex 61.112579345703125 97.72154998779297 96.12376403808594
      vertex 51.128448486328125 107.65858459472656 95.1439208984375
    endloop
  endfacet
  facet normal 0.7829172519752547 -0.1779497394033887 0.5961329271276512
    outer loop
      vertex 54.029685974121094 53.62736892700195 92.26350402832031
      vertex 62.24005889892578 89.21211242675781 92.10289001464844
      vertex 61.112579345703125 97.72154998779297 96.12376403808594
    endloop
  endfacet
  facet normal 0.12503963473554638 -0.02437327011253015 0.9918523244158995
    outer loop
      vertex 54.029685974121094 53.62736892700195 92.26350402832031
      vertex 66.64208221435547 88.74369049072266 91.53643035888672
      vertex 62.24005889892578 89.21211242675781 92.10289001464844
    endloop
  endfacet
  facet normal 0.3489172721679771 -0.10603842032900514 0.9311351086695137
    outer loop
      vertex 54.029685974121094 53.62736892700195 92.26350402832031
      vertex 77.05632781982422 90.8690414428711 87.87601470947266
      vertex 66.64208221435547 88.74369049072266 91.53643035888672
    endloop
  endfacet
  facet normal -0.2886065010968104 0.2860911254265884 0.9137057269585239
    outer loop
      vertex 54.029685974121094 53.62736892700195 92.26350402832031
      vertex 91.71928405761719 93.42565155029297 91.7070083618164
      vertex 77.05632781982422 90.8690414428711 87.87601470947266
    endloop
  endfacet
  facet normal -0.14159162207991066 0.14777640857928667 0.9788329508267422
    outer loop
      vertex 54.029685974121094 53.62736892700195 92.26350402832031
      vertex 97.21246337890625 87.35343933105469 93.41835021972656
      vertex 91.71928405761719 93.42565155029297 91.7070083618164
    endloop
  endfacet
  facet normal 0.0931170077583405 -0.15291546553694968 0.9838425093813292
    outer loop
      vertex 54.029685974121094 53.62736892700195 92.26350402832031
      vertex 92.74761962890625 74.32746124267578 91.81634521484375
      vertex 97.21246337890625 87.35343933105469 93.41835021972656
    endloop
  endfacet
  facet normal -0.16200827237933155 0.32316494338719354 0.9323721033183139
    outer loop
      vertex 54.029685974121094 53.62736892700195 92.26350402832031
      vertex 91.3573226928711 66.62686157226562 94.24383544921875
      vertex 92.74761962890625 74.32746124267578 91.81634521484375
    endloop
  endfacet
  facet normal -0.06452084302490245 0.033332709066939116 0.9973595095659412
    outer loop
      vertex 54.029685974121094 53.62736892700195 92.26350402832031
      vertex 93.77156066894531 61.52589797973633 94.57049560546875
      vertex 91.3573226928711 66.62686157226562 94.24383544921875
    endloop
  endfacet
  facet normal 0.026850542541476643 -0.4023755265871583 0.9150808619837566
    outer loop
      vertex 54.029685974121094 53.62736892700195 92.26350402832031
      vertex 98.21463012695312 53.00846862792969 90.69487762451172
      vertex 93.77156066894531 61.52589797973633 94.57049560546875
    endloop
  endfacet
  facet normal 0.03781735830811382 0.24350240400011045 0.9691627451861544
    outer loop
      vertex 54.029685974121094 53.62736892700195 92.26350402832031
      vertex 105.18140411376953 47.582611083984375 91.7862777709961
      vertex 98.21463012695312 53.00846862792969 90.69487762451172
    endloop
  endfacet
  facet normal 0.027837367270307042 0.15763355532193146 0.9871052341164165
    outer loop
      vertex 54.029685974121094 53.62736892700195 92.26350402832031
      vertex 108.35966491699219 41.661033630371094 92.64228057861328
      vertex 105.18140411376953 47.582611083984375 91.7862777709961
    endloop
  endfacet
  facet normal -0.039473396303863664 -0.14793823850270388 0.9882085450819352
    outer loop
      vertex 54.029685974121094 53.62736892700195 92.26350402832031
      vertex 104.69336700439453 35.09028625488281 91.51216888427734
      vertex 108.35966491699219 41.661033630371094 92.64228057861328
    endloop
  endfacet
  facet normal 0.09681809442401995 0.22531970750869443 0.9694623695638208
    outer loop
      vertex 54.029685974121094 53.62736892700195 92.26350402832031
      vertex 96.865234375 31.15721321105957 93.20806121826172
      vertex 104.69336700439453 35.09028625488281 91.51216888427734
    endloop
  endfacet
  facet normal -0.11672408382198794 -0.18146878867177504 0.9764448612153767
    outer loop
      vertex 54.029685974121094 53.62736892700195 92.26350402832031
      vertex 84.71470642089844 29.35647964477539 91.42092895507812
      vertex 96.865234375 31.15721321105957 93.20806121826172
    endloop
  endfacet
  facet normal -0.07205710750272384 -0.12545007798385385 0.9894796871043822
    outer loop
      vertex 54.029685974121094 53.62736892700195 92.26350402832031
      vertex 77.94993591308594 26.729740142822266 90.59526824951172
      vertex 84.71470642089844 29.35647964477539 91.42092895507812
    endloop
  endfacet
  facet normal 0.6353151850599338 0.5301640673454788 0.5615164087789069
    outer loop
      vertex 54.029685974121094 53.62736892700195 92.26350402832031
      vertex 79.34146881103516 21.68838119506836 93.78072357177734
      vertex 77.94993591308594 26.729740142822266 90.59526824951172
    endloop
  endfacet
  facet normal -0.12370360596805327 -0.050959013213518506 0.9910098873587514
    outer loop
      vertex 54.029685974121094 53.62736892700195 92.26350402832031
      vertex 76.75517272949219 9.612643241882324 92.8369369506836
      vertex 79.34146881103516 21.68838119506836 93.78072357177734
    endloop
  endfacet
  facet normal 0.8451967021399366 0.44033442792120064 0.30289953165874
    outer loop
      vertex 54.029685974121094 53.62736892700195 92.26350402832031
      vertex 78.1093521118164 1.48967707157135 100.86690521240234
      vertex 76.75517272949219 9.612643241882324 92.8369369506836
    endloop
  endfacet
  facet normal -0.05465042496182508 0.1379463499668915 0.9889308042438074
    outer loop
      vertex 54.029685974121094 53.62736892700195 92.26350402832031
      vertex 69.09619140625 0 100.57661437988281
      vertex 78.1093521118164 1.48967707157135 100.86690521240234
    endloop
  endfacet
  facet normal -0.5116520700470536 -0.010568956277661396 0.8591277299562422
    outer loop
      vertex 54.029685974121094 53.62736892700195 92.26350402832031
      vertex 55.28559112548828 5.959572792053223 92.425048828125
      vertex 69.09619140625 0 100.57661437988281
    endloop
  endfacet
  facet normal -0.3917396291742454 -0.007203162510145434 0.9200479212433867
    outer loop
      vertex 54.029685974121094 53.62736892700195 92.26350402832031
      vertex 43.31420135498047 16.952938079833984 87.4139175415039
      vertex 55.28559112548828 5.959572792053223 92.425048828125
    endloop
  endfacet
  facet normal 0.8705720798928838 -0.3053792679096488 0.38580792687805837
    outer loop
      vertex 54.029685974121094 53.62736892700195 92.26350402832031
      vertex 41.20398712158203 17.947237014770508 92.96261596679688
      vertex 43.31420135498047 16.952938079833984 87.4139175415039
    endloop
  endfacet
  facet normal 0.6048212578673724 -0.20231921740820202 0.7702325494933736
    outer loop
      vertex 54.029685974121094 53.62736892700195 92.26350402832031
      vertex 34.06182098388672 14.992853164672852 97.79492950439453
      vertex 41.20398712158203 17.947237014770508 92.96261596679688
    endloop
  endfacet
  facet normal 0.15969067573560122 0.05855245428289872 0.985429093431159
    outer loop
      vertex 54.029685974121094 53.62736892700195 92.26350402832031
      vertex 24.27960777282715 12.707921981811523 99.51592254638672
      vertex 34.06182098388672 14.992853164672852 97.79492950439453
    endloop
  endfacet
  facet normal 0.046883366562856 0.14117833839736132 0.9888734128831117
    outer loop
      vertex 54.029685974121094 53.62736892700195 92.26350402832031
      vertex 16.8408145904541 14.542845726013184 99.60663604736328
      vertex 24.27960777282715 12.707921981811523 99.51592254638672
    endloop
  endfacet
  facet normal 0.3814378075715462 -0.19309526646277803 0.9040018899453036
    outer loop
      vertex 54.029685974121094 53.62736892700195 92.26350402832031
      vertex 13.446290969848633 23.41177749633789 102.93334197998047
      vertex 16.8408145904541 14.542845726013184 99.60663604736328
    endloop
  endfacet
  facet normal -0.2689870607435977 0.6211980011804359 0.7360428007133493
    outer loop
      vertex 54.029685974121094 53.62736892700195 92.26350402832031
      vertex 15.325878143310547 33.56585693359375 95.05049896240234
      vertex 13.446290969848633 23.41177749633789 102.93334197998047
    endloop
  endfacet
  facet normal -0.2497692717622644 0.588674786870038 0.7688155215569359
    outer loop
      vertex 54.029685974121094 53.62736892700195 92.26350402832031
      vertex 18.412797927856445 42.55299377441406 89.1719970703125
      vertex 15.325878143310547 33.56585693359375 95.05049896240234
    endloop
  endfacet
  facet normal -0.020328361592836852 -0.20763652079566627 0.9779948021062391
    outer loop
      vertex 54.029685974121094 53.62736892700195 92.26350402832031
      vertex 8.06471061706543 52.682029724121094 91.10738372802734
      vertex 18.412797927856445 42.55299377441406 89.1719970703125
    endloop
  endfacet
  facet normal 0.000046778746380039905 -0.0003653006248912144 0.999999932183599
    outer loop
      vertex 60.714900970458984 60.261871337890625 0.008218846283853054
      vertex 29.991939544677734 71.33134460449219 0.013699714094400406
      vertex 20.606361389160156 64.75433349609375 0.011736173182725906
    endloop
  endfacet
  facet normal -0.00011504905255404113 -0.0018100922897714598 0.9999983551634564
    outer loop
      vertex 60.714900970458984 60.261871337890625 0.008218846283853054
      vertex 20.606361389160156 64.75433349609375 0.011736173182725906
      vertex 17.59124183654785 60.844730377197266 0.004312532488256693
    endloop
  endfacet
  facet normal 0.00010364587116105362 0.0009664038123256245 -0.999999527660491
    outer loop
      vertex 60.714900970458984 60.261871337890625 0.008218846283853054
      vertex 17.59124183654785 60.844730377197266 0.004312532488256693
      vertex 21.164831161499023 65.60366821289062 0.009281978011131287
    endloop
  endfacet
  facet normal -0.00004612369905894197 -0.00014247336206923747 -0.9999999887869727
    outer loop
      vertex 60.714900970458984 60.261871337890625 0.008218846283853054
      vertex 21.164831161499023 65.60366821289062 0.009281978011131287
      vertex 29.90097999572754 75.00554656982422 0.007539517246186733
    endloop
  endfacet
  facet normal 0.000006612097873638782 -0.00003225683756752283 -0.9999999994578883
    outer loop
      vertex 60.714900970458984 60.261871337890625 0.008218846283853054
      vertex 29.90097999572754 75.00554656982422 0.007539517246186733
      vertex 49.74234390258789 80.60720825195312 0.007490018382668495
    endloop
  endfacet
  facet normal 0.0052541214219478105 0.002797807293880208 -0.9999822830842704
    outer loop
      vertex 60.714900970458984 60.261871337890625 0.008218846283853054
      vertex 49.74234390258789 80.60720825195312 0.007490018382668495
      vertex 46.588539123535156 92.36003112792969 0.02380196750164032
    endloop
  endfacet
  facet normal -0.016960323059577467 -0.006978815970519593 -0.9998318076403473
    outer loop
      vertex 60.714900970458984 60.261871337890625 0.008218846283853054
      vertex 46.588539123535156 92.36003112792969 0.02380196750164032
      vertex 45.98900604248047 96.1926040649414 0.007220632396638393
    endloop
  endfacet
  facet normal -0.0013290474068978842 -0.0005724799268687141 -0.9999989529493136
    outer loop
      vertex 60.714900970458984 60.261871337890625 0.008218846283853054
      vertex 45.98900604248047 96.1926040649414 0.007220632396638393
      vertex 49.0225830078125 96.29408264160156 0.0031307663302868605
    endloop
  endfacet
  facet normal 0.00354783350289273 0.0010100505226327222 -0.9999931963145438
    outer loop
      vertex 60.714900970458984 60.261871337890625 0.008218846283853054
      vertex 49.0225830078125 96.29408264160156 0.0031307663302868605
      vertex 54.5426025390625 92.52037811279297 0.018903352320194244
    endloop
  endfacet
  facet normal -0.01198110695783261 -0.0019612577192620324 -0.9999263005563078
    outer loop
      vertex 60.714900970458984 60.261871337890625 0.008218846283853054
      vertex 54.5426025390625 92.52037811279297 0.018903352320194244
      vertex 56.45272445678711 85.37496185302734 0.010031326673924923
    endloop
  endfacet
  facet normal -0.0009701477617879791 -0.0002368255030192651 0.9999995013633765
    outer loop
      vertex 60.714900970458984 60.261871337890625 0.008218846283853054
      vertex 56.45272445678711 85.37496185302734 0.010031326673924923
      vertex 57.129005432128906 69.13955688476562 0.006842459551990032
    endloop
  endfacet
  facet normal 0.0009968730244158197 0.00024762045579765054 -0.9999994724640023
    outer loop
      vertex 60.714900970458984 60.261871337890625 0.008218846283853054
      vertex 57.129005432128906 69.13955688476562 0.006842459551990032
      vertex 74.201416015625 83.31721496582031 0.027372173964977264
    endloop
  endfacet
  facet normal -0.004675806945787419 0.0035659125854368085 -0.9999827103989543
    outer loop
      vertex 60.714900970458984 60.261871337890625 0.008218846283853054
      vertex 74.201416015625 83.31721496582031 0.027372173964977264
      vertex 79.82259368896484 84.93008422851562 0.0068396274000406265
    endloop
  endfacet
  facet normal -0.00023723820602326303 0.0001278509910426347 -0.999999963686078
    outer loop
      vertex 60.714900970458984 60.261871337890625 0.008218846283853054
      vertex 79.82259368896484 84.93008422851562 0.0068396274000406265
      vertex 81.86776733398438 80.41070556640625 0.005776626989245415
    endloop
  endfacet
  facet normal 0.00023274572456731058 -0.00036555258900324765 -0.9999999061003618
    outer loop
      vertex 60.714900970458984 60.261871337890625 0.008218846283853054
      vertex 81.86776733398438 80.41070556640625 0.005776626989245415
      vertex 81.99710845947266 75.64038848876953 0.007550532463937998
    endloop
  endfacet
  facet normal 0.0003802548759350639 -0.0005696893225929235 -0.9999997654301251
    outer loop
      vertex 60.714900970458984 60.261871337890625 0.008218846283853054
      vertex 81.99710845947266 75.64038848876953 0.007550532463937998
      vertex 76.79732513427734 67.19729614257812 0.010383229702711105
    endloop
  endfacet
  facet normal -0.00035209497434559244 0.0011285426048121704 -0.9999993012101149
    outer loop
      vertex 60.714900970458984 60.261871337890625 0.008218846283853054
      vertex 76.79732513427734 67.19729614257812 0.010383229702711105
      vertex 71.49285125732422 58.10728454589844 0.001992437057197094
    endloop
  endfacet
  facet normal -0.01816901430800782 -0.08800922588341094 -0.995953946263821
    outer loop
      vertex 60.714900970458984 60.261871337890625 0.008218846283853054
      vertex 71.49285125732422 58.10728454589844 0.001992437057197094
      vertex 90.88707733154297 53.987972259521484 0.012197240255773067
    endloop
  endfacet
  facet normal 0.00023640487630545063 0.0005027904531091288 -0.9999998456572355
    outer loop
      vertex 60.714900970458984 60.261871337890625 0.008218846283853054
      vertex 90.88707733154297 53.987972259521484 0.012197240255773067
      vertex 95.07460021972656 48.79029846191406 0.010573850013315678
    endloop
  endfacet
  facet normal 0.00021373199745075875 0.00043488049492638607 -0.9999998825987875
    outer loop
      vertex 60.714900970458984 60.261871337890625 0.008218846283853054
      vertex 95.07460021972656 48.79029846191406 0.010573850013315678
      vertex 90.43057250976562 42.93240737915039 0.0070337895303964615
    endloop
  endfacet
  facet normal -0.000044516760635772635 -0.00000795112099791469 -0.999999998977519
    outer loop
      vertex 60.714900970458984 60.261871337890625 0.008218846283853054
      vertex 90.43057250976562 42.93240737915039 0.0070337895303964615
      vertex 83.12228393554688 40.63261032104492 0.007377416826784611
    endloop
  endfacet
  facet normal 0.0012691650638425775 0.0014916555798466476 -0.9999980820899967
    outer loop
      vertex 60.714900970458984 60.261871337890625 0.008218846283853054
      vertex 83.12228393554688 40.63261032104492 0.007377416826784611
      vertex 72.94339752197266 44.34746551513672 0
    endloop
  endfacet
  facet normal -0.004910744178778469 -0.003256943022319631 -0.999982638306166
    outer loop
      vertex 60.714900970458984 60.261871337890625 0.008218846283853054
      vertex 72.94339752197266 44.34746551513672 0
      vertex 76.87503051757812 31.152788162231445 0.023667480796575546
    endloop
  endfacet
  facet normal 0.004105863144589339 0.0017486913058154165 -0.9999900419336959
    outer loop
      vertex 60.714900970458984 60.261871337890625 0.008218846283853054
      vertex 76.87503051757812 31.152788162231445 0.023667480796575546
      vertex 76.77244567871094 23.375730514526367 0.009646468795835972
    endloop
  endfacet
  facet normal 0.0005183903989501263 0.0001869660095913443 -0.9999998481575413
    outer loop
      vertex 60.714900970458984 60.261871337890625 0.008218846283853054
      vertex 76.77244567871094 23.375730514526367 0.009646468795835972
      vertex 73.20860290527344 20.740468978881836 0.007306302431970835
    endloop
  endfacet
  facet normal -0.0009156976214001362 -0.0002663850086487935 -0.9999995452683433
    outer loop
      vertex 60.714900970458984 60.261871337890625 0.008218846283853054
      vertex 73.20860290527344 20.740468978881836 0.007306302431970835
      vertex 64.00482940673828 22.924551010131836 0.015152372419834137
    endloop
  endfacet
  facet normal 0.0009222664978566249 -0.00010443525247758489 -0.9999995692587998
    outer loop
      vertex 60.714900970458984 60.261871337890625 0.008218846283853054
      vertex 64.00482940673828 22.924551010131836 0.015152372419834137
      vertex 59.904563903808594 28.44719696044922 0.010794074274599552
    endloop
  endfacet
  facet normal 0.00034187020985705895 -0.00008965227581838289 -0.9999999375436126
    outer loop
      vertex 60.714900970458984 60.261871337890625 0.008218846283853054
      vertex 59.904563903808594 28.44719696044922 0.010794074274599552
      vertex 54.1356086730957 39.62362289428711 0.007819848135113716
    endloop
  endfacet
  facet normal -0.00012168010906276968 0.00005812349574529518 -0.9999999909078051
    outer loop
      vertex 60.714900970458984 60.261871337890625 0.008218846283853054
      vertex 54.1356086730957 39.62362289428711 0.007819848135113716
      vertex 45.41637420654297 33.95101547241211 0.008551093749701977
    endloop
  endfacet
  facet normal -0.0011480471821570732 0.0006549077359901206 -0.999999126541381
    outer loop
      vertex 60.714900970458984 60.261871337890625 0.008218846283853054
      vertex 45.41637420654297 33.95101547241211 0.008551093749701977
      vertex 42.13928985595703 35.152469635009766 0.013100186362862587
    endloop
  endfacet
  facet normal 0.0008720073814301209 -0.0008395024779093668 -0.99999926741909
    outer loop
      vertex 60.714900970458984 60.261871337890625 0.008218846283853054
      vertex 42.13928985595703 35.152469635009766 0.013100186362862587
      vertex 38.589752197265625 38.136226654052734 0.007500087842345238
    endloop
  endfacet
  facet normal -0.00022304337518212322 0.00025552368659699336 -0.9999999424796476
    outer loop
      vertex 60.714900970458984 60.261871337890625 0.008218846283853054
      vertex 38.589752197265625 38.136226654052734 0.007500087842345238
      vertex 33.91372299194336 40.871925354003906 0.009242081083357334
    endloop
  endfacet
  facet normal -0.0006011180190989084 0.0007781061525643441 -0.9999995166038544
    outer loop
      vertex 60.714900970458984 60.261871337890625 0.008218846283853054
      vertex 33.91372299194336 40.871925354003906 0.009242081083357334
      vertex 37.292083740234375 49.00605773925781 0.013540508225560188
    endloop
  endfacet
  facet normal 0.00025216571700248413 -0.0009975370556238564 -0.9999994706659969
    outer loop
      vertex 60.714900970458984 60.261871337890625 0.008218846283853054
      vertex 37.292083740234375 49.00605773925781 0.013540508225560188
      vertex 46.47367858886719 62.5722541809082 0.002323002554476261
    endloop
  endfacet
  facet normal 0.0008992093594728351 0.002990857497093196 -0.9999951230850879
    outer loop
      vertex 60.714900970458984 60.261871337890625 0.008218846283853054
      vertex 46.47367858886719 62.5722541809082 0.002323002554476261
      vertex 29.991939544677734 71.33134460449219 0.013699714094400406
    endloop
  endfacet
endsolid exported
